  0
SECTION
  2
HEADER
  9
$ACADVER
  1
AC1024
  9
$ACADMAINTVER
 70
     6
  9
$DWGCODEPAGE
  3
ANSI_936
  9
$INSBASE
 10
0.0
 20
0.0
 30
0.0
  9
$EXTMIN
 10
1.000000000000000E+20
 20
1.000000000000000E+20
 30
1.000000000000000E+20
  9
$EXTMAX
 10
-1.000000000000000E+20
 20
-1.000000000000000E+20
 30
-1.000000000000000E+20
  9
$LIMMIN
 10
0.0
 20
0.0
  9
$LIMMAX
 10
12.0
 20
9.0
  9
$ORTHOMODE
 70
     0
  9
$REGENMODE
 70
     1
  9
$FILLMODE
 70
     1
  9
$QTEXTMODE
 70
     0
  9
$MIRRTEXT
 70
     1
  9
$LTSCALE
 40
1.0
  9
$ATTMODE
 70
     1
  9
$TEXTSIZE
 40
0.2
  9
$TRACEWID
 40
0.05
  9
$TEXTSTYLE
  7
Standard
  9
$CLAYER
  8
0
  9
$CELTYPE
  6
ByLayer
  9
$CECOLOR
 62
   256
  9
$CELTSCALE
 40
1.0
  9
$DISPSILH
 70
     0
  9
$DIMSCALE
 40
1.0
  9
$DIMASZ
 40
0.18
  9
$DIMEXO
 40
0.0625
  9
$DIMDLI
 40
0.38
  9
$DIMRND
 40
0.0
  9
$DIMDLE
 40
0.0
  9
$DIMEXE
 40
0.18
  9
$DIMTP
 40
0.0
  9
$DIMTM
 40
0.0
  9
$DIMTXT
 40
0.18
  9
$DIMCEN
 40
0.09
  9
$DIMTSZ
 40
0.0
  9
$DIMTOL
 70
     0
  9
$DIMLIM
 70
     0
  9
$DIMTIH
 70
     1
  9
$DIMTOH
 70
     1
  9
$DIMSE1
 70
     0
  9
$DIMSE2
 70
     0
  9
$DIMTAD
 70
     0
  9
$DIMZIN
 70
     0
  9
$DIMBLK
  1

  9
$DIMASO
 70
     1
  9
$DIMSHO
 70
     1
  9
$DIMPOST
  1

  9
$DIMAPOST
  1

  9
$DIMALT
 70
     0
  9
$DIMALTD
 70
     2
  9
$DIMALTF
 40
25.4
  9
$DIMLFAC
 40
1.0
  9
$DIMTOFL
 70
     0
  9
$DIMTVP
 40
0.0
  9
$DIMTIX
 70
     0
  9
$DIMSOXD
 70
     0
  9
$DIMSAH
 70
     0
  9
$DIMBLK1
  1

  9
$DIMBLK2
  1

  9
$DIMSTYLE
  2
Standard
  9
$DIMCLRD
 70
     0
  9
$DIMCLRE
 70
     0
  9
$DIMCLRT
 70
     0
  9
$DIMTFAC
 40
1.0
  9
$DIMGAP
 40
0.09
  9
$DIMJUST
 70
     0
  9
$DIMSD1
 70
     0
  9
$DIMSD2
 70
     0
  9
$DIMTOLJ
 70
     1
  9
$DIMTZIN
 70
     0
  9
$DIMALTZ
 70
     0
  9
$DIMALTTZ
 70
     0
  9
$DIMUPT
 70
     0
  9
$DIMDEC
 70
     4
  9
$DIMTDEC
 70
     4
  9
$DIMALTU
 70
     2
  9
$DIMALTTD
 70
     2
  9
$DIMTXSTY
  7
Standard
  9
$DIMAUNIT
 70
     0
  9
$DIMADEC
 70
     0
  9
$DIMALTRND
 40
0.0
  9
$DIMAZIN
 70
     0
  9
$DIMDSEP
 70
    46
  9
$DIMATFIT
 70
     3
  9
$DIMFRAC
 70
     0
  9
$DIMLDRBLK
  1

  9
$DIMLUNIT
 70
     2
  9
$DIMLWD
 70
    -2
  9
$DIMLWE
 70
    -2
  9
$DIMTMOVE
 70
     0
  9
$DIMFXL
 40
1.0
  9
$DIMFXLON
 70
     0
  9
$DIMJOGANG
 40
0.7853981633974483
  9
$DIMTFILL
 70
     0
  9
$DIMTFILLCLR
 70
     0
  9
$DIMARCSYM
 70
     0
  9
$DIMLTYPE
  6

  9
$DIMLTEX1
  6

  9
$DIMLTEX2
  6

  9
$DIMTXTDIRECTION
 70
     0
  9
$LUNITS
 70
     2
  9
$LUPREC
 70
     4
  9
$SKETCHINC
 40
0.1
  9
$FILLETRAD
 40
0.5
  9
$AUNITS
 70
     0
  9
$AUPREC
 70
     0
  9
$MENU
  1
.
  9
$ELEVATION
 40
0.0
  9
$PELEVATION
 40
0.0
  9
$THICKNESS
 40
0.0
  9
$LIMCHECK
 70
     0
  9
$CHAMFERA
 40
0.5
  9
$CHAMFERB
 40
0.5
  9
$CHAMFERC
 40
1.0
  9
$CHAMFERD
 40
0.0
  9
$SKPOLY
 70
     0
  9
$TDCREATE
 40
2459693.908808055
  9
$TDUCREATE
 40
2459693.575474722
  9
$TDUPDATE
 40
2459693.908808102
  9
$TDUUPDATE
 40
2459693.575474768
  9
$TDINDWG
 40
0.0000000116
  9
$TDUSRTIMER
 40
0.0000000116
  9
$USRTIMER
 70
     1
  9
$ANGBASE
 50
0.0
  9
$ANGDIR
 70
     0
  9
$PDMODE
 70
     0
  9
$PDSIZE
 40
0.0
  9
$PLINEWID
 40
0.0
  9
$SPLFRAME
 70
     0
  9
$SPLINETYPE
 70
     6
  9
$SPLINESEGS
 70
     8
  9
$HANDSEED
  5
1EC
  9
$SURFTAB1
 70
     6
  9
$SURFTAB2
 70
     6
  9
$SURFTYPE
 70
     6
  9
$SURFU
 70
     6
  9
$SURFV
 70
     6
  9
$UCSBASE
  2

  9
$UCSNAME
  2

  9
$UCSORG
 10
0.0
 20
0.0
 30
0.0
  9
$UCSXDIR
 10
1.0
 20
0.0
 30
0.0
  9
$UCSYDIR
 10
0.0
 20
1.0
 30
0.0
  9
$UCSORTHOREF
  2

  9
$UCSORTHOVIEW
 70
     0
  9
$UCSORGTOP
 10
0.0
 20
0.0
 30
0.0
  9
$UCSORGBOTTOM
 10
0.0
 20
0.0
 30
0.0
  9
$UCSORGLEFT
 10
0.0
 20
0.0
 30
0.0
  9
$UCSORGRIGHT
 10
0.0
 20
0.0
 30
0.0
  9
$UCSORGFRONT
 10
0.0
 20
0.0
 30
0.0
  9
$UCSORGBACK
 10
0.0
 20
0.0
 30
0.0
  9
$PUCSBASE
  2

  9
$PUCSNAME
  2

  9
$PUCSORG
 10
0.0
 20
0.0
 30
0.0
  9
$PUCSXDIR
 10
1.0
 20
0.0
 30
0.0
  9
$PUCSYDIR
 10
0.0
 20
1.0
 30
0.0
  9
$PUCSORTHOREF
  2

  9
$PUCSORTHOVIEW
 70
     0
  9
$PUCSORGTOP
 10
0.0
 20
0.0
 30
0.0
  9
$PUCSORGBOTTOM
 10
0.0
 20
0.0
 30
0.0
  9
$PUCSORGLEFT
 10
0.0
 20
0.0
 30
0.0
  9
$PUCSORGRIGHT
 10
0.0
 20
0.0
 30
0.0
  9
$PUCSORGFRONT
 10
0.0
 20
0.0
 30
0.0
  9
$PUCSORGBACK
 10
0.0
 20
0.0
 30
0.0
  9
$USERI1
 70
     0
  9
$USERI2
 70
     0
  9
$USERI3
 70
     0
  9
$USERI4
 70
     0
  9
$USERI5
 70
     0
  9
$USERR1
 40
0.0
  9
$USERR2
 40
0.0
  9
$USERR3
 40
0.0
  9
$USERR4
 40
0.0
  9
$USERR5
 40
0.0
  9
$WORLDVIEW
 70
     1
  9
$SHADEDGE
 70
     3
  9
$SHADEDIF
 70
    70
  9
$TILEMODE
 70
     1
  9
$MAXACTVP
 70
    64
  9
$PINSBASE
 10
0.0
 20
0.0
 30
0.0
  9
$PLIMCHECK
 70
     0
  9
$PEXTMIN
 10
1.000000000000000E+20
 20
1.000000000000000E+20
 30
1.000000000000000E+20
  9
$PEXTMAX
 10
-1.000000000000000E+20
 20
-1.000000000000000E+20
 30
-1.000000000000000E+20
  9
$PLIMMIN
 10
0.0
 20
0.0
  9
$PLIMMAX
 10
12.0
 20
9.0
  9
$UNITMODE
 70
     0
  9
$VISRETAIN
 70
     1
  9
$PLINEGEN
 70
     0
  9
$PSLTSCALE
 70
     1
  9
$TREEDEPTH
 70
  3020
  9
$CMLSTYLE
  2
Standard
  9
$CMLJUST
 70
     0
  9
$CMLSCALE
 40
1.0
  9
$PROXYGRAPHICS
 70
     1
  9
$MEASUREMENT
 70
     0
  9
$CELWEIGHT
370
    -1
  9
$ENDCAPS
280
     0
  9
$JOINSTYLE
280
     0
  9
$LWDISPLAY
290
     1
  9
$INSUNITS
 70
     4
  9
$HYPERLINKBASE
  1

  9
$STYLESHEET
  1

  9
$XEDIT
290
     1
  9
$CEPSNTYPE
380
     0
  9
$PSTYLEMODE
290
     1
  9
$FINGERPRINTGUID
  2
{4A3F4125-B970-49DF-BDF6-713F18EA5BEA}
  9
$VERSIONGUID
  2
{FAEB1C32-E019-11D5-929B-00C0DF256EC4}
  9
$EXTNAMES
290
     1
  9
$PSVPSCALE
 40
0.0
  9
$OLESTARTUP
290
     0
  9
$SORTENTS
280
   127
  9
$INDEXCTL
280
     0
  9
$HIDETEXT
280
     1
  9
$XCLIPFRAME
280
     2
  9
$HALOGAP
280
     0
  9
$OBSCOLOR
 70
   257
  9
$OBSLTYPE
280
     0
  9
$INTERSECTIONDISPLAY
280
     0
  9
$INTERSECTIONCOLOR
 70
   257
  9
$DIMASSOC
280
     2
  9
$PROJECTNAME
  1

  9
$CAMERADISPLAY
290
     0
  9
$LENSLENGTH
 40
50.0
  9
$CAMERAHEIGHT
 40
0.0
  9
$STEPSPERSEC
 40
2.0
  9
$STEPSIZE
 40
6.0
  9
$3DDWFPREC
 40
2.0
  9
$PSOLWIDTH
 40
0.25
  9
$PSOLHEIGHT
 40
4.0
  9
$LOFTANG1
 40
1.570796326794897
  9
$LOFTANG2
 40
1.570796326794897
  9
$LOFTMAG1
 40
0.0
  9
$LOFTMAG2
 40
0.0
  9
$LOFTPARAM
 70
     7
  9
$LOFTNORMALS
280
     1
  9
$LATITUDE
 40
37.795
  9
$LONGITUDE
 40
-122.394
  9
$NORTHDIRECTION
 40
0.0
  9
$TIMEZONE
 70
 -8000
  9
$LIGHTGLYPHDISPLAY
280
     1
  9
$TILEMODELIGHTSYNCH
280
     1
  9
$CMATERIAL
347
3C
  9
$SOLIDHIST
280
     1
  9
$SHOWHIST
280
     1
  9
$DWFFRAME
280
     2
  9
$DGNFRAME
280
     2
  9
$REALWORLDSCALE
290
     1
  9
$INTERFERECOLOR
 62
   256
  9
$CSHADOW
280
     0
  9
$SHADOWPLANELOCATION
 40
0.0
  0
ENDSEC
  0
SECTION
  2
CLASSES
  0
CLASS
  1
ACDBDICTIONARYWDFLT
  2
AcDbDictionaryWithDefault
  3
ObjectDBX Classes
 90
        0
 91
        4
280
     0
281
     0
  0
CLASS
  1
VISUALSTYLE
  2
AcDbVisualStyle
  3
ObjectDBX Classes
 90
     4095
 91
        4
280
     0
281
     0
  0
CLASS
  1
MATERIAL
  2
AcDbMaterial
  3
ObjectDBX Classes
 90
     1153
 91
        4
280
     0
281
     0
  0
CLASS
  1
SUN
  2
AcDbSun
  3
SCENEOE
 90
     1024
 91
        4
280
     0
281
     0
  0
ENDSEC
  0
SECTION
  2
TABLES
  0
TABLE
  2
VPORT
  5
8
330
0
100
AcDbSymbolTable
 70
     1
  0
VPORT
  5
29
330
8
100
AcDbSymbolTableRecord
100
AcDbViewportTableRecord
  2
*Active
 70
     0
 10
0.0
 20
0.0
 11
1.0
 21
1.0
 12
0.0
 22
0.0
 13
0.0
 23
0.0
 14
0.5
 24
0.5
 15
0.5
 25
0.5
 16
0.0
 26
0.0
 36
1.0
 17
121.1705000680418
 27
48.13300084924062
 37
0.0
 40
96.26600169848125
 41
2.51741004986506
 42
50.0
 43
0.0
 44
0.0
 50
0.0
 51
0.0
 71
     0
 72
   100
 73
     1
 74
     3
 75
     0
 76
     0
 77
     0
 78
     0
281
     0
 65
     1
110
0.0
120
0.0
130
0.0
111
1.0
121
0.0
131
0.0
112
0.0
122
1.0
132
0.0
 79
     0
146
0.0
 60
     3
 61
     5
292
     1
282
     1
141
0.0
142
0.0
 63
   250
361
3F
  0
ENDTAB
  0
TABLE
  2
LTYPE
  5
5
330
0
100
AcDbSymbolTable
 70
     1
  0
LTYPE
  5
14
330
5
100
AcDbSymbolTableRecord
100
AcDbLinetypeTableRecord
  2
ByBlock
 70
     0
  3

 72
    65
 73
     0
 40
0.0
  0
LTYPE
  5
15
330
5
100
AcDbSymbolTableRecord
100
AcDbLinetypeTableRecord
  2
ByLayer
 70
     0
  3

 72
    65
 73
     0
 40
0.0
  0
LTYPE
  5
16
330
5
100
AcDbSymbolTableRecord
100
AcDbLinetypeTableRecord
  2
Continuous
 70
     0
  3
Solid line
 72
    65
 73
     0
 40
0.0
  0
ENDTAB
  0
TABLE
  2
LAYER
  5
2
330
0
100
AcDbSymbolTable
 70
     2
  0
LAYER
  5
10
330
2
100
AcDbSymbolTableRecord
100
AcDbLayerTableRecord
  2
0
 70
     0
 62
     7
  6
Continuous
370
    -3
390
F
347
3E
  0
LAYER
  5
40
330
2
100
AcDbSymbolTableRecord
100
AcDbLayerTableRecord
  2
_U+56FE_U+5C42 1
 70
     0
 62
     7
  6
Continuous
370
    -3
390
F
347
3E
  0
ENDTAB
  0
TABLE
  2
STYLE
  5
3
330
0
100
AcDbSymbolTable
 70
     1
  0
STYLE
  5
11
330
3
100
AcDbSymbolTableRecord
100
AcDbTextStyleTableRecord
  2
Standard
 70
     0
 40
0.0
 41
1.0
 50
0.0
 71
     0
 42
0.2
  3
txt
  4

  0
ENDTAB
  0
TABLE
  2
VIEW
  5
6
330
0
100
AcDbSymbolTable
 70
     0
  0
ENDTAB
  0
TABLE
  2
UCS
  5
7
330
0
100
AcDbSymbolTable
 70
     0
  0
ENDTAB
  0
TABLE
  2
APPID
  5
9
330
0
100
AcDbSymbolTable
 70
     1
  0
APPID
  5
12
330
9
100
AcDbSymbolTableRecord
100
AcDbRegAppTableRecord
  2
ACAD
 70
     0
  0
ENDTAB
  0
TABLE
  2
DIMSTYLE
  5
A
330
0
100
AcDbSymbolTable
 70
     1
100
AcDbDimStyleTable
  0
DIMSTYLE
105
27
330
A
100
AcDbSymbolTableRecord
100
AcDbDimStyleTableRecord
  2
Standard
 70
     0
178
     0
340
11
  0
ENDTAB
  0
TABLE
  2
BLOCK_RECORD
  5
1
330
0
100
AcDbSymbolTable
 70
     8
  0
BLOCK_RECORD
  5
1F
330
1
100
AcDbSymbolTableRecord
100
AcDbBlockTableRecord
  2
*Model_Space
340
22
 70
     0
280
     1
281
     0
  0
BLOCK_RECORD
  5
1B
330
1
100
AcDbSymbolTableRecord
100
AcDbBlockTableRecord
  2
*Paper_Space
340
1E
 70
     0
280
     1
281
     0
  0
BLOCK_RECORD
  5
23
330
1
100
AcDbSymbolTableRecord
100
AcDbBlockTableRecord
  2
*Paper_Space0
340
26
 70
     0
280
     1
281
     0
  0
BLOCK_RECORD
  5
41
330
1
100
AcDbSymbolTableRecord
100
AcDbBlockTableRecord
  2
block 2
340
0
102
{BLKREFS
331
42
102
}
 70
     0
280
     1
281
     0
  0
BLOCK_RECORD
  5
4C
330
1
100
AcDbSymbolTableRecord
100
AcDbBlockTableRecord
  2
block 3
340
0
102
{BLKREFS
331
4D
102
}
 70
     0
280
     1
281
     0
  0
BLOCK_RECORD
  5
54
330
1
100
AcDbSymbolTableRecord
100
AcDbBlockTableRecord
  2
block 4
340
0
102
{BLKREFS
331
55
102
}
 70
     0
280
     1
281
     0
  0
BLOCK_RECORD
  5
5C
330
1
100
AcDbSymbolTableRecord
100
AcDbBlockTableRecord
  2
block 5
340
0
102
{BLKREFS
331
5D
102
}
 70
     0
280
     1
281
     0
  0
BLOCK_RECORD
  5
64
330
1
100
AcDbSymbolTableRecord
100
AcDbBlockTableRecord
  2
block 6
340
0
102
{BLKREFS
331
65
102
}
 70
     0
280
     1
281
     0
  0
BLOCK_RECORD
  5
6C
330
1
100
AcDbSymbolTableRecord
100
AcDbBlockTableRecord
  2
block 7
340
0
102
{BLKREFS
331
6D
102
}
 70
     0
280
     1
281
     0
  0
BLOCK_RECORD
  5
74
330
1
100
AcDbSymbolTableRecord
100
AcDbBlockTableRecord
  2
block 8
340
0
102
{BLKREFS
331
75
102
}
 70
     0
280
     1
281
     0
  0
ENDTAB
  0
ENDSEC
  0
SECTION
  2
BLOCKS
  0
BLOCK
  5
20
330
1F
100
AcDbEntity
  8
0
100
AcDbBlockBegin
  2
*Model_Space
 70
     0
 10
0.0
 20
0.0
 30
0.0
  3
*Model_Space
  1

  0
ENDBLK
  5
21
330
1F
100
AcDbEntity
  8
0
100
AcDbBlockEnd
  0
BLOCK
  5
1C
330
1B
100
AcDbEntity
 67
     1
  8
0
100
AcDbBlockBegin
  2
*Paper_Space
 70
     0
 10
0.0
 20
0.0
 30
0.0
  3
*Paper_Space
  1

  0
ENDBLK
  5
1D
330
1B
100
AcDbEntity
 67
     1
  8
0
100
AcDbBlockEnd
  0
BLOCK
  5
24
330
23
100
AcDbEntity
  8
0
100
AcDbBlockBegin
  2
*Paper_Space0
 70
     0
 10
0.0
 20
0.0
 30
0.0
  3
*Paper_Space0
  1

  0
ENDBLK
  5
25
330
23
100
AcDbEntity
  8
0
100
AcDbBlockEnd
  0
BLOCK
  5
43
330
41
100
AcDbEntity
  8
0
100
AcDbBlockBegin
  2
block 2
 70
     0
 10
0.0
 20
0.0
 30
0.0
  3
block 2
  1

  0
ENDBLK
  5
44
330
41
100
AcDbEntity
  8
0
100
AcDbBlockEnd
  0
BLOCK
  5
4E
330
4C
100
AcDbEntity
  8
0
100
AcDbBlockBegin
  2
block 3
 70
     0
 10
0.0
 20
0.0
 30
0.0
  3
block 3
  1

  0
SPLINE
  5
50
330
4C
100
AcDbEntity
  8
_U+56FE_U+5C42 1
370
     0
100
AcDbSpline
210
0.0
220
0.0
230
1.0
 70
    11
 71
     3
 72
    17
 73
    13
 74
     0
 42
0.0000000001
 43
0.0000000001
 12
1.0
 22
0.0
 32
0.0
 13
1.0
 23
0.0
 33
0.0
 40
0.0
 40
0.0
 40
0.0
 40
0.0
 40
1.0
 40
1.0
 40
1.0
 40
2.0
 40
2.0
 40
2.0
 40
3.0
 40
3.0
 40
3.0
 40
4.0
 40
4.0
 40
4.0
 40
4.0
 10
23.9938667779929
 20
76.19110449315806
 30
0.0
 10
25.09841772719182
 20
76.19110449315806
 30
0.0
 10
25.99386549871845
 20
75.29565672163143
 30
0.0
 10
25.99386549871845
 20
74.19110577243252
 30
0.0
 10
25.99386549871845
 20
73.0865548232336
 30
0.0
 10
25.09841772719182
 20
72.19110705170696
 30
0.0
 10
23.9938667779929
 20
72.19110705170696
 30
0.0
 10
22.88931582879398
 20
72.19110705170696
 30
0.0
 10
21.99386805726735
 20
73.0865548232336
 30
0.0
 10
21.99386805726735
 20
74.19110577243252
 30
0.0
 10
21.99386805726735
 20
75.29565672163143
 30
0.0
 10
22.88931582879398
 20
76.19110449315806
 30
0.0
 10
23.9938667779929
 20
76.19110449315806
 30
0.0
  0
HATCH
  5
51
330
4C
100
AcDbEntity
  8
_U+56FE_U+5C42 1
 62
     7
420
 16777215
100
AcDbHatch
 10
0.0
 20
0.0
 30
0.0
210
0.0
220
0.0
230
1.0
  2
SOLID
 70
     1
 71
     0
 91
        1
 92
        1
 93
        1
 72
     4
 94
        3
 73
     0
 74
     1
 95
       17
 96
       13
 40
0.0
 40
0.0
 40
0.0
 40
0.0
 40
1.0
 40
1.0
 40
1.0
 40
2.0
 40
2.0
 40
2.0
 40
3.0
 40
3.0
 40
3.0
 40
4.0
 40
4.0
 40
4.0
 40
4.0
 10
23.9938667779929
 20
76.19110449315806
 10
25.09841772719182
 20
76.19110449315806
 10
25.99386549871845
 20
75.29565672163143
 10
25.99386549871845
 20
74.19110577243252
 10
25.99386549871845
 20
73.0865548232336
 10
25.09841772719182
 20
72.19110705170696
 10
23.9938667779929
 20
72.19110705170696
 10
22.88931582879398
 20
72.19110705170696
 10
21.99386805726735
 20
73.0865548232336
 10
21.99386805726735
 20
74.19110577243252
 10
21.99386805726735
 20
75.29565672163143
 10
22.88931582879398
 20
76.19110449315806
 10
23.9938667779929
 20
76.19110449315806
 97
        0
 97
        0
 75
     2
 76
     1
 98
        0
  0
SPLINE
  5
52
330
4C
100
AcDbEntity
  8
_U+56FE_U+5C42 1
370
     0
100
AcDbSpline
210
0.0
220
0.0
230
1.0
 70
    11
 71
     3
 72
    17
 73
    13
 74
     0
 42
0.0000000001
 43
0.0000000001
 12
1.0
 22
0.0
 32
0.0
 13
1.0
 23
0.0
 33
0.0
 40
0.0
 40
0.0
 40
0.0
 40
0.0
 40
1.0
 40
1.0
 40
1.0
 40
2.0
 40
2.0
 40
2.0
 40
3.0
 40
3.0
 40
3.0
 40
4.0
 40
4.0
 40
4.0
 40
4.0
 10
23.99392878961143
 20
76.24102384607212
 30
0.0
 10
25.12613692067329
 20
76.24102384607212
 30
0.0
 10
26.04390887486956
 20
75.32325189187586
 30
0.0
 10
26.04390887486956
 20
74.191043760814
 30
0.0
 10
26.04390887486956
 20
73.05883562975214
 30
0.0
 10
25.12613692067329
 20
72.14106367555586
 30
0.0
 10
23.99392878961143
 20
72.14106367555586
 30
0.0
 10
22.86172065854957
 20
72.14106367555586
 30
0.0
 10
21.9439487043533
 20
73.05883562975214
 30
0.0
 10
21.9439487043533
 20
74.191043760814
 30
0.0
 10
21.9439487043533
 20
75.32325189187586
 30
0.0
 10
22.86172065854957
 20
76.24102384607212
 30
0.0
 10
23.99392878961143
 20
76.24102384607212
 30
0.0
  0
HATCH
  5
53
330
4C
100
AcDbEntity
  8
_U+56FE_U+5C42 1
 62
     7
420
 16777215
100
AcDbHatch
 10
0.0
 20
0.0
 30
0.0
210
0.0
220
0.0
230
1.0
  2
SOLID
 70
     1
 71
     0
 91
        1
 92
        1
 93
        1
 72
     4
 94
        3
 73
     0
 74
     1
 95
       17
 96
       13
 40
0.0
 40
0.0
 40
0.0
 40
0.0
 40
1.0
 40
1.0
 40
1.0
 40
2.0
 40
2.0
 40
2.0
 40
3.0
 40
3.0
 40
3.0
 40
4.0
 40
4.0
 40
4.0
 40
4.0
 10
23.99392878961143
 20
76.24102384607212
 10
25.12613692067329
 20
76.24102384607212
 10
26.04390887486956
 20
75.32325189187586
 10
26.04390887486956
 20
74.191043760814
 10
26.04390887486956
 20
73.05883562975214
 10
25.12613692067329
 20
72.14106367555586
 10
23.99392878961143
 20
72.14106367555586
 10
22.86172065854957
 20
72.14106367555586
 10
21.9439487043533
 20
73.05883562975214
 10
21.9439487043533
 20
74.191043760814
 10
21.9439487043533
 20
75.32325189187586
 10
22.86172065854957
 20
76.24102384607212
 10
23.99392878961143
 20
76.24102384607212
 97
        0
 97
        0
 75
     2
 76
     1
 98
        0
  0
ENDBLK
  5
4F
330
4C
100
AcDbEntity
  8
0
100
AcDbBlockEnd
  0
BLOCK
  5
56
330
54
100
AcDbEntity
  8
0
100
AcDbBlockBegin
  2
block 4
 70
     0
 10
0.0
 20
0.0
 30
0.0
  3
block 4
  1

  0
SPLINE
  5
58
330
54
100
AcDbEntity
  8
_U+56FE_U+5C42 1
370
     0
100
AcDbSpline
210
0.0
220
0.0
230
1.0
 70
    11
 71
     3
 72
    17
 73
    13
 74
     0
 42
0.0000000001
 43
0.0000000001
 12
1.0
 22
0.0
 32
0.0
 13
1.0
 23
0.0
 33
0.0
 40
0.0
 40
0.0
 40
0.0
 40
0.0
 40
1.0
 40
1.0
 40
1.0
 40
2.0
 40
2.0
 40
2.0
 40
3.0
 40
3.0
 40
3.0
 40
4.0
 40
4.0
 40
4.0
 40
4.0
 10
60.04779385917109
 20
77.22589237151436
 30
0.0
 10
61.15240681998853
 20
77.22589237151436
 30
0.0
 10
62.04773056827811
 20
76.33044459998773
 30
0.0
 10
62.04773056827811
 20
75.22589365078882
 30
0.0
 10
62.04773056827811
 20
74.1213427015899
 30
0.0
 10
61.15240681998853
 20
73.22589493006326
 30
0.0
 10
60.04779385917109
 20
73.22589493006326
 30
0.0
 10
58.94324290997217
 20
73.22589493006326
 30
0.0
 10
58.04779513844554
 20
74.1213427015899
 30
0.0
 10
58.04779513844554
 20
75.22589365078882
 30
0.0
 10
58.04779513844554
 20
76.33044459998773
 30
0.0
 10
58.94324290997217
 20
77.22589237151436
 30
0.0
 10
60.04779385917109
 20
77.22589237151436
 30
0.0
  0
HATCH
  5
59
330
54
100
AcDbEntity
  8
_U+56FE_U+5C42 1
 62
     7
420
 16777215
100
AcDbHatch
 10
0.0
 20
0.0
 30
0.0
210
0.0
220
0.0
230
1.0
  2
SOLID
 70
     1
 71
     0
 91
        1
 92
        1
 93
        1
 72
     4
 94
        3
 73
     0
 74
     1
 95
       17
 96
       13
 40
0.0
 40
0.0
 40
0.0
 40
0.0
 40
1.0
 40
1.0
 40
1.0
 40
2.0
 40
2.0
 40
2.0
 40
3.0
 40
3.0
 40
3.0
 40
4.0
 40
4.0
 40
4.0
 40
4.0
 10
60.04779385917109
 20
77.22589237151436
 10
61.15240681998853
 20
77.22589237151436
 10
62.04773056827811
 20
76.33044459998773
 10
62.04773056827811
 20
75.22589365078882
 10
62.04773056827811
 20
74.1213427015899
 10
61.15240681998853
 20
73.22589493006326
 10
60.04779385917109
 20
73.22589493006326
 10
58.94324290997217
 20
73.22589493006326
 10
58.04779513844554
 20
74.1213427015899
 10
58.04779513844554
 20
75.22589365078882
 10
58.04779513844554
 20
76.33044459998773
 10
58.94324290997217
 20
77.22589237151436
 10
60.04779385917109
 20
77.22589237151436
 97
        0
 97
        0
 75
     2
 76
     1
 98
        0
  0
SPLINE
  5
5A
330
54
100
AcDbEntity
  8
_U+56FE_U+5C42 1
370
     0
100
AcDbSpline
210
0.0
220
0.0
230
1.0
 70
    11
 71
     3
 72
    17
 73
    13
 74
     0
 42
0.0000000001
 43
0.0000000001
 12
1.0
 22
0.0
 32
0.0
 13
1.0
 23
0.0
 33
0.0
 40
0.0
 40
0.0
 40
0.0
 40
0.0
 40
1.0
 40
1.0
 40
1.0
 40
2.0
 40
2.0
 40
2.0
 40
3.0
 40
3.0
 40
3.0
 40
4.0
 40
4.0
 40
4.0
 40
4.0
 10
60.04779385917109
 20
77.27587373604695
 30
0.0
 10
61.17993997861442
 20
77.27587373604695
 30
0.0
 10
62.09783595604775
 20
76.35810178185068
 30
0.0
 10
62.09783595604775
 20
75.22589365078882
 30
0.0
 10
62.09783595604775
 20
74.09368551972696
 30
0.0
 10
61.17993997861442
 20
73.17591356553068
 30
0.0
 10
60.04779385917109
 20
73.17591356553068
 30
0.0
 10
58.91558572810923
 20
73.17591356553068
 30
0.0
 10
57.99781377391296
 20
74.09368551972696
 30
0.0
 10
57.99781377391296
 20
75.22589365078882
 30
0.0
 10
57.99781377391296
 20
76.35810178185068
 30
0.0
 10
58.91558572810923
 20
77.27587373604695
 30
0.0
 10
60.04779385917109
 20
77.27587373604695
 30
0.0
  0
HATCH
  5
5B
330
54
100
AcDbEntity
  8
_U+56FE_U+5C42 1
 62
     7
420
 16777215
100
AcDbHatch
 10
0.0
 20
0.0
 30
0.0
210
0.0
220
0.0
230
1.0
  2
SOLID
 70
     1
 71
     0
 91
        1
 92
        1
 93
        1
 72
     4
 94
        3
 73
     0
 74
     1
 95
       17
 96
       13
 40
0.0
 40
0.0
 40
0.0
 40
0.0
 40
1.0
 40
1.0
 40
1.0
 40
2.0
 40
2.0
 40
2.0
 40
3.0
 40
3.0
 40
3.0
 40
4.0
 40
4.0
 40
4.0
 40
4.0
 10
60.04779385917109
 20
77.27587373604695
 10
61.17993997861442
 20
77.27587373604695
 10
62.09783595604775
 20
76.35810178185068
 10
62.09783595604775
 20
75.22589365078882
 10
62.09783595604775
 20
74.09368551972696
 10
61.17993997861442
 20
73.17591356553068
 10
60.04779385917109
 20
73.17591356553068
 10
58.91558572810923
 20
73.17591356553068
 10
57.99781377391296
 20
74.09368551972696
 10
57.99781377391296
 20
75.22589365078882
 10
57.99781377391296
 20
76.35810178185068
 10
58.91558572810923
 20
77.27587373604695
 10
60.04779385917109
 20
77.27587373604695
 97
        0
 97
        0
 75
     2
 76
     1
 98
        0
  0
ENDBLK
  5
57
330
54
100
AcDbEntity
  8
0
100
AcDbBlockEnd
  0
BLOCK
  5
5E
330
5C
100
AcDbEntity
  8
0
100
AcDbBlockBegin
  2
block 5
 70
     0
 10
0.0
 20
0.0
 30
0.0
  3
block 5
  1

  0
SPLINE
  5
60
330
5C
100
AcDbEntity
  8
_U+56FE_U+5C42 1
370
     0
100
AcDbSpline
210
0.0
220
0.0
230
1.0
 70
    11
 71
     3
 72
    17
 73
    13
 74
     0
 42
0.0000000001
 43
0.0000000001
 12
1.0
 22
0.0
 32
0.0
 13
1.0
 23
0.0
 33
0.0
 40
0.0
 40
0.0
 40
0.0
 40
0.0
 40
1.0
 40
1.0
 40
1.0
 40
2.0
 40
2.0
 40
2.0
 40
3.0
 40
3.0
 40
3.0
 40
4.0
 40
4.0
 40
4.0
 40
4.0
 10
25.65397981757319
 20
37.68703635236847
 30
0.0
 10
26.75853076677211
 20
37.68703635236847
 30
0.0
 10
27.65397853829874
 20
36.79158858084184
 30
0.0
 10
27.65397853829874
 20
35.68703763164292
 30
0.0
 10
27.65397853829874
 20
34.582486682444
 30
0.0
 10
26.75853076677211
 20
33.68703891091737
 30
0.0
 10
25.65397981757319
 20
33.68703891091737
 30
0.0
 10
24.54942886837428
 20
33.68703891091737
 30
0.0
 10
23.65398109684764
 20
34.582486682444
 30
0.0
 10
23.65398109684764
 20
35.68703763164292
 30
0.0
 10
23.65398109684764
 20
36.79158858084184
 30
0.0
 10
24.54942886837428
 20
37.68703635236847
 30
0.0
 10
25.65397981757319
 20
37.68703635236847
 30
0.0
  0
HATCH
  5
61
330
5C
100
AcDbEntity
  8
_U+56FE_U+5C42 1
 62
     7
420
 16777215
100
AcDbHatch
 10
0.0
 20
0.0
 30
0.0
210
0.0
220
0.0
230
1.0
  2
SOLID
 70
     1
 71
     0
 91
        1
 92
        1
 93
        1
 72
     4
 94
        3
 73
     0
 74
     1
 95
       17
 96
       13
 40
0.0
 40
0.0
 40
0.0
 40
0.0
 40
1.0
 40
1.0
 40
1.0
 40
2.0
 40
2.0
 40
2.0
 40
3.0
 40
3.0
 40
3.0
 40
4.0
 40
4.0
 40
4.0
 40
4.0
 10
25.65397981757319
 20
37.68703635236847
 10
26.75853076677211
 20
37.68703635236847
 10
27.65397853829874
 20
36.79158858084184
 10
27.65397853829874
 20
35.68703763164292
 10
27.65397853829874
 20
34.582486682444
 10
26.75853076677211
 20
33.68703891091737
 10
25.65397981757319
 20
33.68703891091737
 10
24.54942886837428
 20
33.68703891091737
 10
23.65398109684764
 20
34.582486682444
 10
23.65398109684764
 20
35.68703763164292
 10
23.65398109684764
 20
36.79158858084184
 10
24.54942886837428
 20
37.68703635236847
 10
25.65397981757319
 20
37.68703635236847
 97
        0
 97
        0
 75
     2
 76
     1
 98
        0
  0
SPLINE
  5
62
330
5C
100
AcDbEntity
  8
_U+56FE_U+5C42 1
370
     0
100
AcDbSpline
210
0.0
220
0.0
230
1.0
 70
    11
 71
     3
 72
    17
 73
    13
 74
     0
 42
0.0000000001
 43
0.0000000001
 12
1.0
 22
0.0
 32
0.0
 13
1.0
 23
0.0
 33
0.0
 40
0.0
 40
0.0
 40
0.0
 40
0.0
 40
1.0
 40
1.0
 40
1.0
 40
2.0
 40
2.0
 40
2.0
 40
3.0
 40
3.0
 40
3.0
 40
4.0
 40
4.0
 40
4.0
 40
4.0
 10
25.65397981757319
 20
37.73701771690105
 30
0.0
 10
26.78618794863505
 20
37.73701771690105
 30
0.0
 10
27.70395990283133
 20
36.81924576270478
 30
0.0
 10
27.70395990283133
 20
35.68703763164292
 30
0.0
 10
27.70395990283133
 20
34.55482950058106
 30
0.0
 10
26.78618794863505
 20
33.63705754638479
 30
0.0
 10
25.65397981757319
 20
33.63705754638479
 30
0.0
 10
24.52177168651134
 20
33.63705754638479
 30
0.0
 10
23.60399973231506
 20
34.55482950058106
 30
0.0
 10
23.60399973231506
 20
35.68703763164292
 30
0.0
 10
23.60399973231506
 20
36.81924576270478
 30
0.0
 10
24.52177168651134
 20
37.73701771690105
 30
0.0
 10
25.65397981757319
 20
37.73701771690105
 30
0.0
  0
HATCH
  5
63
330
5C
100
AcDbEntity
  8
_U+56FE_U+5C42 1
 62
     7
420
 16777215
100
AcDbHatch
 10
0.0
 20
0.0
 30
0.0
210
0.0
220
0.0
230
1.0
  2
SOLID
 70
     1
 71
     0
 91
        1
 92
        1
 93
        1
 72
     4
 94
        3
 73
     0
 74
     1
 95
       17
 96
       13
 40
0.0
 40
0.0
 40
0.0
 40
0.0
 40
1.0
 40
1.0
 40
1.0
 40
2.0
 40
2.0
 40
2.0
 40
3.0
 40
3.0
 40
3.0
 40
4.0
 40
4.0
 40
4.0
 40
4.0
 10
25.65397981757319
 20
37.73701771690105
 10
26.78618794863505
 20
37.73701771690105
 10
27.70395990283133
 20
36.81924576270478
 10
27.70395990283133
 20
35.68703763164292
 10
27.70395990283133
 20
34.55482950058106
 10
26.78618794863505
 20
33.63705754638479
 10
25.65397981757319
 20
33.63705754638479
 10
24.52177168651134
 20
33.63705754638479
 10
23.60399973231506
 20
34.55482950058106
 10
23.60399973231506
 20
35.68703763164292
 10
23.60399973231506
 20
36.81924576270478
 10
24.52177168651134
 20
37.73701771690105
 10
25.65397981757319
 20
37.73701771690105
 97
        0
 97
        0
 75
     2
 76
     1
 98
        0
  0
ENDBLK
  5
5F
330
5C
100
AcDbEntity
  8
0
100
AcDbBlockEnd
  0
BLOCK
  5
66
330
64
100
AcDbEntity
  8
0
100
AcDbBlockBegin
  2
block 6
 70
     0
 10
0.0
 20
0.0
 30
0.0
  3
block 6
  1

  0
SPLINE
  5
68
330
64
100
AcDbEntity
  8
_U+56FE_U+5C42 1
370
     0
100
AcDbSpline
210
0.0
220
0.0
230
1.0
 70
    11
 71
     3
 72
    17
 73
    13
 74
     0
 42
0.0000000001
 43
0.0000000001
 12
1.0
 22
0.0
 32
0.0
 13
1.0
 23
0.0
 33
0.0
 40
0.0
 40
0.0
 40
0.0
 40
0.0
 40
1.0
 40
1.0
 40
1.0
 40
2.0
 40
2.0
 40
2.0
 40
3.0
 40
3.0
 40
3.0
 40
4.0
 40
4.0
 40
4.0
 40
4.0
 10
169.5475997956579
 20
38.2260413406032
 30
0.0
 10
170.6521507448568
 20
38.2260413406032
 30
0.0
 10
171.5475985163834
 20
37.33059356907656
 30
0.0
 10
171.5475985163834
 20
36.22604261987765
 30
0.0
 10
171.5475985163834
 20
35.12149167067873
 30
0.0
 10
170.6521507448568
 20
34.2260438991521
 30
0.0
 10
169.5475997956579
 20
34.2260438991521
 30
0.0
 10
168.443048846459
 20
34.2260438991521
 30
0.0
 10
167.5476010749323
 20
35.12149167067873
 30
0.0
 10
167.5476010749323
 20
36.22604261987765
 30
0.0
 10
167.5476010749323
 20
37.33059356907656
 30
0.0
 10
168.443048846459
 20
38.2260413406032
 30
0.0
 10
169.5475997956579
 20
38.2260413406032
 30
0.0
  0
HATCH
  5
69
330
64
100
AcDbEntity
  8
_U+56FE_U+5C42 1
 62
     7
420
 16777215
100
AcDbHatch
 10
0.0
 20
0.0
 30
0.0
210
0.0
220
0.0
230
1.0
  2
SOLID
 70
     1
 71
     0
 91
        1
 92
        1
 93
        1
 72
     4
 94
        3
 73
     0
 74
     1
 95
       17
 96
       13
 40
0.0
 40
0.0
 40
0.0
 40
0.0
 40
1.0
 40
1.0
 40
1.0
 40
2.0
 40
2.0
 40
2.0
 40
3.0
 40
3.0
 40
3.0
 40
4.0
 40
4.0
 40
4.0
 40
4.0
 10
169.5475997956579
 20
38.2260413406032
 10
170.6521507448568
 20
38.2260413406032
 10
171.5475985163834
 20
37.33059356907656
 10
171.5475985163834
 20
36.22604261987765
 10
171.5475985163834
 20
35.12149167067873
 10
170.6521507448568
 20
34.2260438991521
 10
169.5475997956579
 20
34.2260438991521
 10
168.443048846459
 20
34.2260438991521
 10
167.5476010749323
 20
35.12149167067873
 10
167.5476010749323
 20
36.22604261987765
 10
167.5476010749323
 20
37.33059356907656
 10
168.443048846459
 20
38.2260413406032
 10
169.5475997956579
 20
38.2260413406032
 97
        0
 97
        0
 75
     2
 76
     1
 98
        0
  0
SPLINE
  5
6A
330
64
100
AcDbEntity
  8
_U+56FE_U+5C42 1
370
     0
100
AcDbSpline
210
0.0
220
0.0
230
1.0
 70
    11
 71
     3
 72
    17
 73
    13
 74
     0
 42
0.0000000001
 43
0.0000000001
 12
1.0
 22
0.0
 32
0.0
 13
1.0
 23
0.0
 33
0.0
 40
0.0
 40
0.0
 40
0.0
 40
0.0
 40
1.0
 40
1.0
 40
1.0
 40
2.0
 40
2.0
 40
2.0
 40
3.0
 40
3.0
 40
3.0
 40
4.0
 40
4.0
 40
4.0
 40
4.0
 10
169.5475997956579
 20
38.27602270513578
 30
0.0
 10
170.6798079267197
 20
38.27602270513578
 30
0.0
 10
171.597579880916
 20
37.3582507509395
 30
0.0
 10
171.597579880916
 20
36.22604261987765
 30
0.0
 10
171.597579880916
 20
35.09383448881579
 30
0.0
 10
170.6798079267197
 20
34.17606253461952
 30
0.0
 10
169.5475997956579
 20
34.17606253461952
 30
0.0
 10
168.415391664596
 20
34.17606253461952
 30
0.0
 10
167.4976197103998
 20
35.09383448881579
 30
0.0
 10
167.4976197103998
 20
36.22604261987765
 30
0.0
 10
167.4976197103998
 20
37.3582507509395
 30
0.0
 10
168.415391664596
 20
38.27602270513578
 30
0.0
 10
169.5475997956579
 20
38.27602270513578
 30
0.0
  0
HATCH
  5
6B
330
64
100
AcDbEntity
  8
_U+56FE_U+5C42 1
 62
     7
420
 16777215
100
AcDbHatch
 10
0.0
 20
0.0
 30
0.0
210
0.0
220
0.0
230
1.0
  2
SOLID
 70
     1
 71
     0
 91
        1
 92
        1
 93
        1
 72
     4
 94
        3
 73
     0
 74
     1
 95
       17
 96
       13
 40
0.0
 40
0.0
 40
0.0
 40
0.0
 40
1.0
 40
1.0
 40
1.0
 40
2.0
 40
2.0
 40
2.0
 40
3.0
 40
3.0
 40
3.0
 40
4.0
 40
4.0
 40
4.0
 40
4.0
 10
169.5475997956579
 20
38.27602270513578
 10
170.6798079267197
 20
38.27602270513578
 10
171.597579880916
 20
37.3582507509395
 10
171.597579880916
 20
36.22604261987765
 10
171.597579880916
 20
35.09383448881579
 10
170.6798079267197
 20
34.17606253461952
 10
169.5475997956579
 20
34.17606253461952
 10
168.415391664596
 20
34.17606253461952
 10
167.4976197103998
 20
35.09383448881579
 10
167.4976197103998
 20
36.22604261987765
 10
167.4976197103998
 20
37.3582507509395
 10
168.415391664596
 20
38.27602270513578
 10
169.5475997956579
 20
38.27602270513578
 97
        0
 97
        0
 75
     2
 76
     1
 98
        0
  0
ENDBLK
  5
67
330
64
100
AcDbEntity
  8
0
100
AcDbBlockEnd
  0
BLOCK
  5
6E
330
6C
100
AcDbEntity
  8
0
100
AcDbBlockBegin
  2
block 7
 70
     0
 10
0.0
 20
0.0
 30
0.0
  3
block 7
  1

  0
SPLINE
  5
70
330
6C
100
AcDbEntity
  8
_U+56FE_U+5C42 1
370
     0
100
AcDbSpline
210
0.0
220
0.0
230
1.0
 70
    11
 71
     3
 72
    17
 73
    13
 74
     0
 42
0.0000000001
 43
0.0000000001
 12
1.0
 22
0.0
 32
0.0
 13
1.0
 23
0.0
 33
0.0
 40
0.0
 40
0.0
 40
0.0
 40
0.0
 40
1.0
 40
1.0
 40
1.0
 40
2.0
 40
2.0
 40
2.0
 40
3.0
 40
3.0
 40
3.0
 40
4.0
 40
4.0
 40
4.0
 40
4.0
 10
208.7876838367418
 20
38.32203532608265
 30
0.0
 10
209.8922347859407
 20
38.32203532608265
 30
0.0
 10
210.7876825574673
 20
37.42658755455601
 30
0.0
 10
210.7876825574673
 20
36.3220366053571
 30
0.0
 10
210.7876825574673
 20
35.21748565615817
 30
0.0
 10
209.8922347859407
 20
34.32203788463155
 30
0.0
 10
208.7876838367418
 20
34.32203788463155
 30
0.0
 10
207.6831328875429
 20
34.32203788463155
 30
0.0
 10
206.7876851160162
 20
35.21748565615817
 30
0.0
 10
206.7876851160162
 20
36.3220366053571
 30
0.0
 10
206.7876851160162
 20
37.42658755455601
 30
0.0
 10
207.6831328875429
 20
38.32203532608265
 30
0.0
 10
208.7876838367418
 20
38.32203532608265
 30
0.0
  0
HATCH
  5
71
330
6C
100
AcDbEntity
  8
_U+56FE_U+5C42 1
 62
     7
420
 16777215
100
AcDbHatch
 10
0.0
 20
0.0
 30
0.0
210
0.0
220
0.0
230
1.0
  2
SOLID
 70
     1
 71
     0
 91
        1
 92
        1
 93
        1
 72
     4
 94
        3
 73
     0
 74
     1
 95
       17
 96
       13
 40
0.0
 40
0.0
 40
0.0
 40
0.0
 40
1.0
 40
1.0
 40
1.0
 40
2.0
 40
2.0
 40
2.0
 40
3.0
 40
3.0
 40
3.0
 40
4.0
 40
4.0
 40
4.0
 40
4.0
 10
208.7876838367418
 20
38.32203532608265
 10
209.8922347859407
 20
38.32203532608265
 10
210.7876825574673
 20
37.42658755455601
 10
210.7876825574673
 20
36.3220366053571
 10
210.7876825574673
 20
35.21748565615817
 10
209.8922347859407
 20
34.32203788463155
 10
208.7876838367418
 20
34.32203788463155
 10
207.6831328875429
 20
34.32203788463155
 10
206.7876851160162
 20
35.21748565615817
 10
206.7876851160162
 20
36.3220366053571
 10
206.7876851160162
 20
37.42658755455601
 10
207.6831328875429
 20
38.32203532608265
 10
208.7876838367418
 20
38.32203532608265
 97
        0
 97
        0
 75
     2
 76
     1
 98
        0
  0
SPLINE
  5
72
330
6C
100
AcDbEntity
  8
_U+56FE_U+5C42 1
370
     0
100
AcDbSpline
210
0.0
220
0.0
230
1.0
 70
    11
 71
     3
 72
    17
 73
    13
 74
     0
 42
0.0000000001
 43
0.0000000001
 12
1.0
 22
0.0
 32
0.0
 13
1.0
 23
0.0
 33
0.0
 40
0.0
 40
0.0
 40
0.0
 40
0.0
 40
1.0
 40
1.0
 40
1.0
 40
2.0
 40
2.0
 40
2.0
 40
3.0
 40
3.0
 40
3.0
 40
4.0
 40
4.0
 40
4.0
 40
4.0
 10
208.7876838367418
 20
38.37201669061523
 30
0.0
 10
209.9198919678036
 20
38.37201669061523
 30
0.0
 10
210.8376639219999
 20
37.45424473641896
 30
0.0
 10
210.8376639219999
 20
36.3220366053571
 30
0.0
 10
210.8376639219999
 20
35.18982847429523
 30
0.0
 10
209.9198919678036
 20
34.27205652009896
 30
0.0
 10
208.7876838367418
 20
34.27205652009896
 30
0.0
 10
207.6554757056799
 20
34.27205652009896
 30
0.0
 10
206.7377037514837
 20
35.18982847429523
 30
0.0
 10
206.7377037514837
 20
36.3220366053571
 30
0.0
 10
206.7377037514837
 20
37.45424473641896
 30
0.0
 10
207.6554757056799
 20
38.37201669061523
 30
0.0
 10
208.7876838367418
 20
38.37201669061523
 30
0.0
  0
HATCH
  5
73
330
6C
100
AcDbEntity
  8
_U+56FE_U+5C42 1
 62
     7
420
 16777215
100
AcDbHatch
 10
0.0
 20
0.0
 30
0.0
210
0.0
220
0.0
230
1.0
  2
SOLID
 70
     1
 71
     0
 91
        1
 92
        1
 93
        1
 72
     4
 94
        3
 73
     0
 74
     1
 95
       17
 96
       13
 40
0.0
 40
0.0
 40
0.0
 40
0.0
 40
1.0
 40
1.0
 40
1.0
 40
2.0
 40
2.0
 40
2.0
 40
3.0
 40
3.0
 40
3.0
 40
4.0
 40
4.0
 40
4.0
 40
4.0
 10
208.7876838367418
 20
38.37201669061523
 10
209.9198919678036
 20
38.37201669061523
 10
210.8376639219999
 20
37.45424473641896
 10
210.8376639219999
 20
36.3220366053571
 10
210.8376639219999
 20
35.18982847429523
 10
209.9198919678036
 20
34.27205652009896
 10
208.7876838367418
 20
34.27205652009896
 10
207.6554757056799
 20
34.27205652009896
 10
206.7377037514837
 20
35.18982847429523
 10
206.7377037514837
 20
36.3220366053571
 10
206.7377037514837
 20
37.45424473641896
 10
207.6554757056799
 20
38.37201669061523
 10
208.7876838367418
 20
38.37201669061523
 97
        0
 97
        0
 75
     2
 76
     1
 98
        0
  0
ENDBLK
  5
6F
330
6C
100
AcDbEntity
  8
0
100
AcDbBlockEnd
  0
BLOCK
  5
76
330
74
100
AcDbEntity
  8
0
100
AcDbBlockBegin
  2
block 8
 70
     0
 10
0.0
 20
0.0
 30
0.0
  3
block 8
  1

  0
SPLINE
  5
78
330
74
100
AcDbEntity
  8
_U+56FE_U+5C42 1
370
     0
100
AcDbSpline
210
0.0
220
0.0
230
1.0
 70
    11
 71
     3
 72
    17
 73
    13
 74
     0
 42
0.0000000001
 43
0.0000000001
 12
1.0
 22
0.0
 32
0.0
 13
1.0
 23
0.0
 33
0.0
 40
0.0
 40
0.0
 40
0.0
 40
0.0
 40
1.0
 40
1.0
 40
1.0
 40
2.0
 40
2.0
 40
2.0
 40
3.0
 40
3.0
 40
3.0
 40
4.0
 40
4.0
 40
4.0
 40
4.0
 10
203.4536924575427
 20
75.65997498047624
 30
0.0
 10
204.5582434067416
 20
75.65997498047624
 30
0.0
 10
205.4536911782683
 20
74.7645272089496
 30
0.0
 10
205.4536911782683
 20
73.65997625975069
 30
0.0
 10
205.4536911782683
 20
72.55542531055177
 30
0.0
 10
204.5582434067416
 20
71.65997753902514
 30
0.0
 10
203.4536924575427
 20
71.65997753902514
 30
0.0
 10
202.3491415083438
 20
71.65997753902514
 30
0.0
 10
201.4536937368171
 20
72.55542531055177
 30
0.0
 10
201.4536937368171
 20
73.65997625975069
 30
0.0
 10
201.4536937368171
 20
74.7645272089496
 30
0.0
 10
202.3491415083438
 20
75.65997498047624
 30
0.0
 10
203.4536924575427
 20
75.65997498047624
 30
0.0
  0
HATCH
  5
79
330
74
100
AcDbEntity
  8
_U+56FE_U+5C42 1
 62
     7
420
 16777215
100
AcDbHatch
 10
0.0
 20
0.0
 30
0.0
210
0.0
220
0.0
230
1.0
  2
SOLID
 70
     1
 71
     0
 91
        1
 92
        1
 93
        1
 72
     4
 94
        3
 73
     0
 74
     1
 95
       17
 96
       13
 40
0.0
 40
0.0
 40
0.0
 40
0.0
 40
1.0
 40
1.0
 40
1.0
 40
2.0
 40
2.0
 40
2.0
 40
3.0
 40
3.0
 40
3.0
 40
4.0
 40
4.0
 40
4.0
 40
4.0
 10
203.4536924575427
 20
75.65997498047624
 10
204.5582434067416
 20
75.65997498047624
 10
205.4536911782683
 20
74.7645272089496
 10
205.4536911782683
 20
73.65997625975069
 10
205.4536911782683
 20
72.55542531055177
 10
204.5582434067416
 20
71.65997753902514
 10
203.4536924575427
 20
71.65997753902514
 10
202.3491415083438
 20
71.65997753902514
 10
201.4536937368171
 20
72.55542531055177
 10
201.4536937368171
 20
73.65997625975069
 10
201.4536937368171
 20
74.7645272089496
 10
202.3491415083438
 20
75.65997498047624
 10
203.4536924575427
 20
75.65997498047624
 97
        0
 97
        0
 75
     2
 76
     1
 98
        0
  0
SPLINE
  5
7A
330
74
100
AcDbEntity
  8
_U+56FE_U+5C42 1
370
     0
100
AcDbSpline
210
0.0
220
0.0
230
1.0
 70
    11
 71
     3
 72
    17
 73
    13
 74
     0
 42
0.0000000001
 43
0.0000000001
 12
1.0
 22
0.0
 32
0.0
 13
1.0
 23
0.0
 33
0.0
 40
0.0
 40
0.0
 40
0.0
 40
0.0
 40
1.0
 40
1.0
 40
1.0
 40
2.0
 40
2.0
 40
2.0
 40
3.0
 40
3.0
 40
3.0
 40
4.0
 40
4.0
 40
4.0
 40
4.0
 10
203.4536924575427
 20
75.70995634500882
 30
0.0
 10
204.5859005886045
 20
75.70995634500882
 30
0.0
 10
205.5036725428008
 20
74.79218439081255
 30
0.0
 10
205.5036725428008
 20
73.65997625975069
 30
0.0
 10
205.5036725428008
 20
72.52776812868883
 30
0.0
 10
204.5859005886045
 20
71.60999617449257
 30
0.0
 10
203.4536924575427
 20
71.60999617449257
 30
0.0
 10
202.3214843264808
 20
71.60999617449257
 30
0.0
 10
201.4037123722846
 20
72.52776812868883
 30
0.0
 10
201.4037123722846
 20
73.65997625975069
 30
0.0
 10
201.4037123722846
 20
74.79218439081255
 30
0.0
 10
202.3214843264808
 20
75.70995634500882
 30
0.0
 10
203.4536924575427
 20
75.70995634500882
 30
0.0
  0
HATCH
  5
7B
330
74
100
AcDbEntity
  8
_U+56FE_U+5C42 1
 62
     7
420
 16777215
100
AcDbHatch
 10
0.0
 20
0.0
 30
0.0
210
0.0
220
0.0
230
1.0
  2
SOLID
 70
     1
 71
     0
 91
        1
 92
        1
 93
        1
 72
     4
 94
        3
 73
     0
 74
     1
 95
       17
 96
       13
 40
0.0
 40
0.0
 40
0.0
 40
0.0
 40
1.0
 40
1.0
 40
1.0
 40
2.0
 40
2.0
 40
2.0
 40
3.0
 40
3.0
 40
3.0
 40
4.0
 40
4.0
 40
4.0
 40
4.0
 10
203.4536924575427
 20
75.70995634500882
 10
204.5859005886045
 20
75.70995634500882
 10
205.5036725428008
 20
74.79218439081255
 10
205.5036725428008
 20
73.65997625975069
 10
205.5036725428008
 20
72.52776812868883
 10
204.5859005886045
 20
71.60999617449257
 10
203.4536924575427
 20
71.60999617449257
 10
202.3214843264808
 20
71.60999617449257
 10
201.4037123722846
 20
72.52776812868883
 10
201.4037123722846
 20
73.65997625975069
 10
201.4037123722846
 20
74.79218439081255
 10
202.3214843264808
 20
75.70995634500882
 10
203.4536924575427
 20
75.70995634500882
 97
        0
 97
        0
 75
     2
 76
     1
 98
        0
  0
ENDBLK
  5
77
330
74
100
AcDbEntity
  8
0
100
AcDbBlockEnd
  0
ENDSEC
  0
SECTION
  2
ENTITIES
  0
INSERT
  5
42
330
1F
100
AcDbEntity
  8
_U+56FE_U+5C42 1
100
AcDbBlockReference
  2
block 2
 10
0.0
 20
0.0
 30
0.0
  0
POLYLINE
  5
45
330
1F
100
AcDbEntity
  8
_U+56FE_U+5C42 1
370
     0
100
AcDb2dPolyline
 66
     1
 10
0.0
 20
0.0
 30
0.0
  0
VERTEX
  5
46
330
45
100
AcDbEntity
  8
_U+56FE_U+5C42 1
370
     0
100
AcDbVertex
100
AcDb2dVertex
 10
0.0000212795204533
 20
96.26593972397538
 30
0.0
  0
VERTEX
  5
47
330
45
100
AcDbEntity
  8
_U+56FE_U+5C42 1
370
     0
100
AcDbVertex
100
AcDb2dVertex
 10
242.3410544124463
 20
96.26593972397538
 30
0.0
  0
VERTEX
  5
48
330
45
100
AcDbEntity
  8
_U+56FE_U+5C42 1
370
     0
100
AcDbVertex
100
AcDb2dVertex
 10
242.3410544124463
 20
0.0000953089061835
 30
0.0
  0
VERTEX
  5
49
330
45
100
AcDbEntity
  8
_U+56FE_U+5C42 1
370
     0
100
AcDbVertex
100
AcDb2dVertex
 10
0.0000212795204533
 20
0.0000953089061835
 30
0.0
  0
VERTEX
  5
4A
330
45
100
AcDbEntity
  8
_U+56FE_U+5C42 1
370
     0
100
AcDbVertex
100
AcDb2dVertex
 10
0.0000212795204533
 20
96.26593972397538
 30
0.0
  0
SEQEND
  5
4B
330
45
100
AcDbEntity
  8
_U+56FE_U+5C42 1
370
     0
  0
INSERT
  5
4D
330
1F
100
AcDbEntity
  8
_U+56FE_U+5C42 1
100
AcDbBlockReference
  2
block 3
 10
0.0
 20
0.0
 30
0.0
  0
INSERT
  5
55
330
1F
100
AcDbEntity
  8
_U+56FE_U+5C42 1
100
AcDbBlockReference
  2
block 4
 10
0.0
 20
0.0
 30
0.0
  0
INSERT
  5
5D
330
1F
100
AcDbEntity
  8
_U+56FE_U+5C42 1
100
AcDbBlockReference
  2
block 5
 10
0.0
 20
0.0
 30
0.0
  0
INSERT
  5
65
330
1F
100
AcDbEntity
  8
_U+56FE_U+5C42 1
100
AcDbBlockReference
  2
block 6
 10
0.0
 20
0.0
 30
0.0
  0
INSERT
  5
6D
330
1F
100
AcDbEntity
  8
_U+56FE_U+5C42 1
100
AcDbBlockReference
  2
block 7
 10
0.0
 20
0.0
 30
0.0
  0
INSERT
  5
75
330
1F
100
AcDbEntity
  8
_U+56FE_U+5C42 1
100
AcDbBlockReference
  2
block 8
 10
0.0
 20
0.0
 30
0.0
  0
POLYLINE
  5
7C
330
1F
100
AcDbEntity
  8
_U+56FE_U+5C42 1
 62
     7
420
 16777215
370
     9
100
AcDb2dPolyline
 66
     1
 10
0.0
 20
0.0
 30
0.0
  0
VERTEX
  5
7D
330
7C
100
AcDbEntity
  8
_U+56FE_U+5C42 1
 62
     7
420
 16777215
370
     9
100
AcDbVertex
100
AcDb2dVertex
 10
157.9727591279241
 20
91.20145083889366
 30
0.0
  0
VERTEX
  5
7E
330
7C
100
AcDbEntity
  8
_U+56FE_U+5C42 1
 62
     7
420
 16777215
370
     9
100
AcDbVertex
100
AcDb2dVertex
 10
171.9716339638695
 20
91.20145083889366
 30
0.0
  0
VERTEX
  5
7F
330
7C
100
AcDbEntity
  8
_U+56FE_U+5C42 1
 62
     7
420
 16777215
370
     9
100
AcDbVertex
100
AcDb2dVertex
 10
171.9716339638695
 20
77.20220393323714
 30
0.0
  0
VERTEX
  5
80
330
7C
100
AcDbEntity
  8
_U+56FE_U+5C42 1
 62
     7
420
 16777215
370
     9
100
AcDbVertex
100
AcDb2dVertex
 10
157.9727591279241
 20
77.20220393323714
 30
0.0
  0
VERTEX
  5
81
330
7C
100
AcDbEntity
  8
_U+56FE_U+5C42 1
 62
     7
420
 16777215
370
     9
100
AcDbVertex
100
AcDb2dVertex
 10
157.9727591279241
 20
91.20145083889366
 30
0.0
  0
SEQEND
  5
82
330
7C
100
AcDbEntity
  8
_U+56FE_U+5C42 1
 62
     7
420
 16777215
370
     9
  0
POLYLINE
  5
83
330
1F
100
AcDbEntity
  8
_U+56FE_U+5C42 1
 62
     7
420
 16777215
370
     9
100
AcDb2dPolyline
 66
     1
 10
0.0
 20
0.0
 30
0.0
  0
VERTEX
  5
84
330
83
100
AcDbEntity
  8
_U+56FE_U+5C42 1
 62
     7
420
 16777215
370
     9
100
AcDbVertex
100
AcDb2dVertex
 10
24.6226645898544
 20
91.20145083889366
 30
0.0
  0
VERTEX
  5
85
330
83
100
AcDbEntity
  8
_U+56FE_U+5C42 1
 62
     7
420
 16777215
370
     9
100
AcDbVertex
100
AcDb2dVertex
 10
38.62191149551093
 20
91.20145083889366
 30
0.0
  0
VERTEX
  5
86
330
83
100
AcDbEntity
  8
_U+56FE_U+5C42 1
 62
     7
420
 16777215
370
     9
100
AcDbVertex
100
AcDb2dVertex
 10
38.62191149551093
 20
77.20220393323714
 30
0.0
  0
VERTEX
  5
87
330
83
100
AcDbEntity
  8
_U+56FE_U+5C42 1
 62
     7
420
 16777215
370
     9
100
AcDbVertex
100
AcDb2dVertex
 10
24.6226645898544
 20
77.20220393323714
 30
0.0
  0
VERTEX
  5
88
330
83
100
AcDbEntity
  8
_U+56FE_U+5C42 1
 62
     7
420
 16777215
370
     9
100
AcDbVertex
100
AcDb2dVertex
 10
24.6226645898544
 20
91.20145083889366
 30
0.0
  0
SEQEND
  5
89
330
83
100
AcDbEntity
  8
_U+56FE_U+5C42 1
 62
     7
420
 16777215
370
     9
  0
POLYLINE
  5
8A
330
1F
100
AcDbEntity
  8
_U+56FE_U+5C42 1
 62
     7
420
 16777215
370
     9
100
AcDb2dPolyline
 66
     1
 10
0.0
 20
0.0
 30
0.0
  0
VERTEX
  5
8B
330
8A
100
AcDbEntity
  8
_U+56FE_U+5C42 1
 62
     7
420
 16777215
370
     9
100
AcDbVertex
100
AcDb2dVertex
 10
38.91014149842338
 20
53.101388392806
 30
0.0
  0
VERTEX
  5
8C
330
8A
100
AcDbEntity
  8
_U+56FE_U+5C42 1
 62
     7
420
 16777215
370
     9
100
AcDbVertex
100
AcDb2dVertex
 10
52.90938840407991
 20
53.101388392806
 30
0.0
  0
VERTEX
  5
8D
330
8A
100
AcDbEntity
  8
_U+56FE_U+5C42 1
 62
     7
420
 16777215
370
     9
100
AcDbVertex
100
AcDb2dVertex
 10
52.90938840407991
 20
39.10201746391242
 30
0.0
  0
VERTEX
  5
8E
330
8A
100
AcDbEntity
  8
_U+56FE_U+5C42 1
 62
     7
420
 16777215
370
     9
100
AcDbVertex
100
AcDb2dVertex
 10
38.91014149842338
 20
39.10201746391242
 30
0.0
  0
VERTEX
  5
8F
330
8A
100
AcDbEntity
  8
_U+56FE_U+5C42 1
 62
     7
420
 16777215
370
     9
100
AcDbVertex
100
AcDb2dVertex
 10
38.91014149842338
 20
53.101388392806
 30
0.0
  0
SEQEND
  5
90
330
8A
100
AcDbEntity
  8
_U+56FE_U+5C42 1
 62
     7
420
 16777215
370
     9
  0
POLYLINE
  5
91
330
1F
100
AcDbEntity
  8
_U+56FE_U+5C42 1
 62
     7
420
 16777215
370
     9
100
AcDb2dPolyline
 66
     1
 10
0.0
 20
0.0
 30
0.0
  0
VERTEX
  5
92
330
91
100
AcDbEntity
  8
_U+56FE_U+5C42 1
 62
     7
420
 16777215
370
     9
100
AcDbVertex
100
AcDb2dVertex
 10
136.5398074397519
 20
34.05154320461775
 30
0.0
  0
VERTEX
  5
93
330
91
100
AcDbEntity
  8
_U+56FE_U+5C42 1
 62
     7
420
 16777215
370
     9
100
AcDbVertex
100
AcDb2dVertex
 10
136.5398074397519
 20
29.3510625202882
 30
0.0
  0
VERTEX
  5
94
330
91
100
AcDbEntity
  8
_U+56FE_U+5C42 1
 62
     7
420
 16777215
370
     9
100
AcDbVertex
100
AcDb2dVertex
 10
135.0158099028379
 20
29.3510625202882
 30
0.0
  0
VERTEX
  5
95
330
91
100
AcDbEntity
  8
_U+56FE_U+5C42 1
 62
     7
420
 16777215
370
     9
100
AcDbVertex
100
AcDb2dVertex
 10
135.0158099028379
 20
32.58124772934791
 30
0.0
  0
VERTEX
  5
96
330
91
100
AcDbEntity
  8
_U+56FE_U+5C42 1
 62
     7
420
 16777215
370
     9
100
AcDbVertex
100
AcDb2dVertex
 10
128.264729017065
 20
32.58124772934791
 30
0.0
  0
VERTEX
  5
97
330
91
100
AcDbEntity
  8
_U+56FE_U+5C42 1
 62
     7
420
 16777215
370
     9
100
AcDbVertex
100
AcDb2dVertex
 10
128.264729017065
 20
29.3510625202882
 30
0.0
  0
VERTEX
  5
98
330
91
100
AcDbEntity
  8
_U+56FE_U+5C42 1
 62
     7
420
 16777215
370
     9
100
AcDbVertex
100
AcDb2dVertex
 10
127.4407186300812
 20
29.3510625202882
 30
0.0
  0
VERTEX
  5
99
330
91
100
AcDbEntity
  8
_U+56FE_U+5C42 1
 62
     7
420
 16777215
370
     9
100
AcDbVertex
100
AcDb2dVertex
 10
127.4407186300812
 20
26.55229214131926
 30
0.0
  0
VERTEX
  5
9A
330
91
100
AcDbEntity
  8
_U+56FE_U+5C42 1
 62
     7
420
 16777215
370
     9
100
AcDbVertex
100
AcDb2dVertex
 10
128.264729017065
 20
26.55229214131926
 30
0.0
  0
VERTEX
  5
9B
330
91
100
AcDbEntity
  8
_U+56FE_U+5C42 1
 62
     7
420
 16777215
370
     9
100
AcDbVertex
100
AcDb2dVertex
 10
128.264729017065
 20
20.28223538045851
 30
0.0
  0
VERTEX
  5
9C
330
91
100
AcDbEntity
  8
_U+56FE_U+5C42 1
 62
     7
420
 16777215
370
     9
100
AcDbVertex
100
AcDb2dVertex
 10
129.9897682212428
 20
20.28223538045851
 30
0.0
  0
VERTEX
  5
9D
330
91
100
AcDbEntity
  8
_U+56FE_U+5C42 1
 62
     7
420
 16777215
370
     9
100
AcDbVertex
100
AcDb2dVertex
 10
129.9897682212428
 20
19.08193849225425
 30
0.0
  0
VERTEX
  5
9E
330
91
100
AcDbEntity
  8
_U+56FE_U+5C42 1
 62
     7
420
 16777215
370
     9
100
AcDbVertex
100
AcDb2dVertex
 10
133.2907706986601
 20
19.08193849225425
 30
0.0
  0
VERTEX
  5
9F
330
91
100
AcDbEntity
  8
_U+56FE_U+5C42 1
 62
     7
420
 16777215
370
     9
100
AcDbVertex
100
AcDb2dVertex
 10
133.2907706986601
 20
20.28223538045851
 30
0.0
  0
VERTEX
  5
A0
330
91
100
AcDbEntity
  8
_U+56FE_U+5C42 1
 62
     7
420
 16777215
370
     9
100
AcDbVertex
100
AcDb2dVertex
 10
135.0158099028379
 20
20.28223538045851
 30
0.0
  0
VERTEX
  5
A1
330
91
100
AcDbEntity
  8
_U+56FE_U+5C42 1
 62
     7
420
 16777215
370
     9
100
AcDbVertex
100
AcDb2dVertex
 10
135.0158099028379
 20
24.75116468120908
 30
0.0
  0
VERTEX
  5
A2
330
91
100
AcDbEntity
  8
_U+56FE_U+5C42 1
 62
     7
420
 16777215
370
     9
100
AcDbVertex
100
AcDb2dVertex
 10
136.5398074397519
 20
24.75116468120908
 30
0.0
  0
VERTEX
  5
A3
330
91
100
AcDbEntity
  8
_U+56FE_U+5C42 1
 62
     7
420
 16777215
370
     9
100
AcDbVertex
100
AcDb2dVertex
 10
136.5398074397519
 20
20.05211026410565
 30
0.0
  0
VERTEX
  5
A4
330
91
100
AcDbEntity
  8
_U+56FE_U+5C42 1
 62
     7
420
 16777215
370
     9
100
AcDbVertex
100
AcDb2dVertex
 10
150.5406666474902
 20
20.05211026410565
 30
0.0
  0
VERTEX
  5
A5
330
91
100
AcDbEntity
  8
_U+56FE_U+5C42 1
 62
     7
420
 16777215
370
     9
100
AcDbVertex
100
AcDb2dVertex
 10
150.5406666474902
 20
24.75116468120908
 30
0.0
  0
VERTEX
  5
A6
330
91
100
AcDbEntity
  8
_U+56FE_U+5C42 1
 62
     7
420
 16777215
370
     9
100
AcDbVertex
100
AcDb2dVertex
 10
152.0646641844042
 20
24.75116468120908
 30
0.0
  0
VERTEX
  5
A7
330
91
100
AcDbEntity
  8
_U+56FE_U+5C42 1
 62
     7
420
 16777215
370
     9
100
AcDbVertex
100
AcDb2dVertex
 10
152.0646641844042
 20
20.28223538045851
 30
0.0
  0
VERTEX
  5
A8
330
91
100
AcDbEntity
  8
_U+56FE_U+5C42 1
 62
     7
420
 16777215
370
     9
100
AcDbVertex
100
AcDb2dVertex
 10
153.789703388582
 20
20.28223538045851
 30
0.0
  0
VERTEX
  5
A9
330
91
100
AcDbEntity
  8
_U+56FE_U+5C42 1
 62
     7
420
 16777215
370
     9
100
AcDbVertex
100
AcDb2dVertex
 10
153.789703388582
 20
19.08193849225425
 30
0.0
  0
VERTEX
  5
AA
330
91
100
AcDbEntity
  8
_U+56FE_U+5C42 1
 62
     7
420
 16777215
370
     9
100
AcDbVertex
100
AcDb2dVertex
 10
157.0907058659993
 20
19.08193849225425
 30
0.0
  0
VERTEX
  5
AB
330
91
100
AcDbEntity
  8
_U+56FE_U+5C42 1
 62
     7
420
 16777215
370
     9
100
AcDbVertex
100
AcDb2dVertex
 10
157.0907058659993
 20
20.28223538045851
 30
0.0
  0
VERTEX
  5
AC
330
91
100
AcDbEntity
  8
_U+56FE_U+5C42 1
 62
     7
420
 16777215
370
     9
100
AcDbVertex
100
AcDb2dVertex
 10
158.8157450701771
 20
20.28223538045851
 30
0.0
  0
VERTEX
  5
AD
330
91
100
AcDbEntity
  8
_U+56FE_U+5C42 1
 62
     7
420
 16777215
370
     9
100
AcDbVertex
100
AcDb2dVertex
 10
158.8157450701771
 20
26.55229214131926
 30
0.0
  0
VERTEX
  5
AE
330
91
100
AcDbEntity
  8
_U+56FE_U+5C42 1
 62
     7
420
 16777215
370
     9
100
AcDbVertex
100
AcDb2dVertex
 10
159.6397554571609
 20
26.55229214131926
 30
0.0
  0
VERTEX
  5
AF
330
91
100
AcDbEntity
  8
_U+56FE_U+5C42 1
 62
     7
420
 16777215
370
     9
100
AcDbVertex
100
AcDb2dVertex
 10
159.6397554571609
 20
29.3510625202882
 30
0.0
  0
VERTEX
  5
B0
330
91
100
AcDbEntity
  8
_U+56FE_U+5C42 1
 62
     7
420
 16777215
370
     9
100
AcDbVertex
100
AcDb2dVertex
 10
158.8157450701771
 20
29.3510625202882
 30
0.0
  0
VERTEX
  5
B1
330
91
100
AcDbEntity
  8
_U+56FE_U+5C42 1
 62
     7
420
 16777215
370
     9
100
AcDbVertex
100
AcDb2dVertex
 10
158.8157450701771
 20
32.58124772934791
 30
0.0
  0
VERTEX
  5
B2
330
91
100
AcDbEntity
  8
_U+56FE_U+5C42 1
 62
     7
420
 16777215
370
     9
100
AcDbVertex
100
AcDb2dVertex
 10
152.0646641844042
 20
32.58124772934791
 30
0.0
  0
VERTEX
  5
B3
330
91
100
AcDbEntity
  8
_U+56FE_U+5C42 1
 62
     7
420
 16777215
370
     9
100
AcDbVertex
100
AcDb2dVertex
 10
152.0646641844042
 20
29.3510625202882
 30
0.0
  0
VERTEX
  5
B4
330
91
100
AcDbEntity
  8
_U+56FE_U+5C42 1
 62
     7
420
 16777215
370
     9
100
AcDbVertex
100
AcDb2dVertex
 10
150.5406666474902
 20
29.3510625202882
 30
0.0
  0
VERTEX
  5
B5
330
91
100
AcDbEntity
  8
_U+56FE_U+5C42 1
 62
     7
420
 16777215
370
     9
100
AcDbVertex
100
AcDb2dVertex
 10
150.5406666474902
 20
34.05154320461775
 30
0.0
  0
VERTEX
  5
B6
330
91
100
AcDbEntity
  8
_U+56FE_U+5C42 1
 62
     7
420
 16777215
370
     9
100
AcDbVertex
100
AcDb2dVertex
 10
136.5398074397519
 20
34.05154320461775
 30
0.0
  0
SEQEND
  5
B7
330
91
100
AcDbEntity
  8
_U+56FE_U+5C42 1
 62
     7
420
 16777215
370
     9
  0
POLYLINE
  5
B8
330
1F
100
AcDbEntity
  8
_U+56FE_U+5C42 1
 62
     7
420
 16777215
370
     9
100
AcDb2dPolyline
 66
     1
 10
0.0
 20
0.0
 30
0.0
  0
VERTEX
  5
B9
330
B8
100
AcDbEntity
  8
_U+56FE_U+5C42 1
 62
     7
420
 16777215
370
     9
100
AcDbVertex
100
AcDb2dVertex
 10
3.048016353348502
 20
93.72594382911868
 30
0.0
  0
VERTEX
  5
BA
330
B8
100
AcDbEntity
  8
_U+56FE_U+5C42 1
 62
     7
420
 16777215
370
     9
100
AcDbVertex
100
AcDb2dVertex
 10
232.0286462746807
 20
93.72594382911868
 30
0.0
  0
VERTEX
  5
BB
330
B8
100
AcDbEntity
  8
_U+56FE_U+5C42 1
 62
     7
420
 16777215
370
     9
100
AcDbVertex
100
AcDb2dVertex
 10
232.0286462746807
 20
17.27206739393179
 30
0.0
  0
VERTEX
  5
BC
330
B8
100
AcDbEntity
  8
_U+56FE_U+5C42 1
 62
     7
420
 16777215
370
     9
100
AcDbVertex
100
AcDb2dVertex
 10
2.54001717437716
 20
17.27206739393179
 30
0.0
  0
VERTEX
  5
BD
330
B8
100
AcDbEntity
  8
_U+56FE_U+5C42 1
 62
     7
420
 16777215
370
     9
100
AcDbVertex
100
AcDb2dVertex
 10
2.54001717437716
 20
93.72594382911868
 30
0.0
  0
VERTEX
  5
BE
330
B8
100
AcDbEntity
  8
_U+56FE_U+5C42 1
 62
     7
420
 16777215
370
     9
100
AcDbVertex
100
AcDb2dVertex
 10
3.048016353348502
 20
93.72594382911868
 30
0.0
  0
SEQEND
  5
BF
330
B8
100
AcDbEntity
  8
_U+56FE_U+5C42 1
 62
     7
420
 16777215
370
     9
  0
POLYLINE
  5
C0
330
1F
100
AcDbEntity
  8
_U+56FE_U+5C42 1
 62
     7
420
 16777215
370
     9
100
AcDb2dPolyline
 66
     1
 10
0.0
 20
0.0
 30
0.0
  0
VERTEX
  5
C1
330
C0
100
AcDbEntity
  8
_U+56FE_U+5C42 1
 62
     7
420
 16777215
370
     9
100
AcDbVertex
100
AcDb2dVertex
 10
5.572633366810569
 20
91.20145083889366
 30
0.0
  0
VERTEX
  5
C2
330
C0
100
AcDbEntity
  8
_U+56FE_U+5C42 1
 62
     7
420
 16777215
370
     9
100
AcDbVertex
100
AcDb2dVertex
 10
19.5721283189412
 20
91.20145083889366
 30
0.0
  0
VERTEX
  5
C3
330
C0
100
AcDbEntity
  8
_U+56FE_U+5C42 1
 62
     7
420
 16777215
370
     9
100
AcDbVertex
100
AcDb2dVertex
 10
19.5721283189412
 20
77.20220393323714
 30
0.0
  0
VERTEX
  5
C4
330
C0
100
AcDbEntity
  8
_U+56FE_U+5C42 1
 62
     7
420
 16777215
370
     9
100
AcDbVertex
100
AcDb2dVertex
 10
5.572633366810569
 20
77.20220393323714
 30
0.0
  0
VERTEX
  5
C5
330
C0
100
AcDbEntity
  8
_U+56FE_U+5C42 1
 62
     7
420
 16777215
370
     9
100
AcDbVertex
100
AcDb2dVertex
 10
5.572633366810569
 20
91.20145083889366
 30
0.0
  0
SEQEND
  5
C6
330
C0
100
AcDbEntity
  8
_U+56FE_U+5C42 1
 62
     7
420
 16777215
370
     9
  0
POLYLINE
  5
C7
330
1F
100
AcDbEntity
  8
_U+56FE_U+5C42 1
 62
     7
420
 16777215
370
     9
100
AcDb2dPolyline
 66
     1
 10
0.0
 20
0.0
 30
0.0
  0
VERTEX
  5
C8
330
C7
100
AcDbEntity
  8
_U+56FE_U+5C42 1
 62
     7
420
 16777215
370
     9
100
AcDbVertex
100
AcDb2dVertex
 10
43.6726338012797
 20
91.20145083889366
 30
0.0
  0
VERTEX
  5
C9
330
C7
100
AcDbEntity
  8
_U+56FE_U+5C42 1
 62
     7
420
 16777215
370
     9
100
AcDbVertex
100
AcDb2dVertex
 10
57.67188070693623
 20
91.20145083889366
 30
0.0
  0
VERTEX
  5
CA
330
C7
100
AcDbEntity
  8
_U+56FE_U+5C42 1
 62
     7
420
 16777215
370
     9
100
AcDbVertex
100
AcDb2dVertex
 10
57.67188070693623
 20
77.20220393323714
 30
0.0
  0
VERTEX
  5
CB
330
C7
100
AcDbEntity
  8
_U+56FE_U+5C42 1
 62
     7
420
 16777215
370
     9
100
AcDbVertex
100
AcDb2dVertex
 10
43.6726338012797
 20
77.20220393323714
 30
0.0
  0
VERTEX
  5
CC
330
C7
100
AcDbEntity
  8
_U+56FE_U+5C42 1
 62
     7
420
 16777215
370
     9
100
AcDbVertex
100
AcDb2dVertex
 10
43.6726338012797
 20
91.20145083889366
 30
0.0
  0
SEQEND
  5
CD
330
C7
100
AcDbEntity
  8
_U+56FE_U+5C42 1
 62
     7
420
 16777215
370
     9
  0
POLYLINE
  5
CE
330
1F
100
AcDbEntity
  8
_U+56FE_U+5C42 1
 62
     7
420
 16777215
370
     9
100
AcDb2dPolyline
 66
     1
 10
0.0
 20
0.0
 30
0.0
  0
VERTEX
  5
CF
330
CE
100
AcDbEntity
  8
_U+56FE_U+5C42 1
 62
     7
420
 16777215
370
     9
100
AcDbVertex
100
AcDb2dVertex
 10
62.72254100108648
 20
91.20145083889366
 30
0.0
  0
VERTEX
  5
D0
330
CE
100
AcDbEntity
  8
_U+56FE_U+5C42 1
 62
     7
420
 16777215
370
     9
100
AcDbVertex
100
AcDb2dVertex
 10
76.721787906743
 20
91.20145083889366
 30
0.0
  0
VERTEX
  5
D1
330
CE
100
AcDbEntity
  8
_U+56FE_U+5C42 1
 62
     7
420
 16777215
370
     9
100
AcDbVertex
100
AcDb2dVertex
 10
76.721787906743
 20
77.20220393323714
 30
0.0
  0
VERTEX
  5
D2
330
CE
100
AcDbEntity
  8
_U+56FE_U+5C42 1
 62
     7
420
 16777215
370
     9
100
AcDbVertex
100
AcDb2dVertex
 10
62.72254100108648
 20
77.20220393323714
 30
0.0
  0
VERTEX
  5
D3
330
CE
100
AcDbEntity
  8
_U+56FE_U+5C42 1
 62
     7
420
 16777215
370
     9
100
AcDbVertex
100
AcDb2dVertex
 10
62.72254100108648
 20
91.20145083889366
 30
0.0
  0
SEQEND
  5
D4
330
CE
100
AcDbEntity
  8
_U+56FE_U+5C42 1
 62
     7
420
 16777215
370
     9
  0
POLYLINE
  5
D5
330
1F
100
AcDbEntity
  8
_U+56FE_U+5C42 1
 62
     7
420
 16777215
370
     9
100
AcDb2dPolyline
 66
     1
 10
0.0
 20
0.0
 30
0.0
  0
VERTEX
  5
D6
330
D5
100
AcDbEntity
  8
_U+56FE_U+5C42 1
 62
     7
420
 16777215
370
     9
100
AcDbVertex
100
AcDb2dVertex
 10
81.77251021251179
 20
91.20145083889366
 30
0.0
  0
VERTEX
  5
D7
330
D5
100
AcDbEntity
  8
_U+56FE_U+5C42 1
 62
     7
420
 16777215
370
     9
100
AcDbVertex
100
AcDb2dVertex
 10
95.77175711816831
 20
91.20145083889366
 30
0.0
  0
VERTEX
  5
D8
330
D5
100
AcDbEntity
  8
_U+56FE_U+5C42 1
 62
     7
420
 16777215
370
     9
100
AcDbVertex
100
AcDb2dVertex
 10
95.77175711816831
 20
77.20220393323714
 30
0.0
  0
VERTEX
  5
D9
330
D5
100
AcDbEntity
  8
_U+56FE_U+5C42 1
 62
     7
420
 16777215
370
     9
100
AcDbVertex
100
AcDb2dVertex
 10
81.77251021251179
 20
77.20220393323714
 30
0.0
  0
VERTEX
  5
DA
330
D5
100
AcDbEntity
  8
_U+56FE_U+5C42 1
 62
     7
420
 16777215
370
     9
100
AcDbVertex
100
AcDb2dVertex
 10
81.77251021251179
 20
91.20145083889366
 30
0.0
  0
SEQEND
  5
DB
330
D5
100
AcDbEntity
  8
_U+56FE_U+5C42 1
 62
     7
420
 16777215
370
     9
  0
POLYLINE
  5
DC
330
1F
100
AcDbEntity
  8
_U+56FE_U+5C42 1
 62
     7
420
 16777215
370
     9
100
AcDb2dPolyline
 66
     1
 10
0.0
 20
0.0
 30
0.0
  0
VERTEX
  5
DD
330
DC
100
AcDbEntity
  8
_U+56FE_U+5C42 1
 62
     7
420
 16777215
370
     9
100
AcDbVertex
100
AcDb2dVertex
 10
100.8211151683295
 20
91.20145083889366
 30
0.0
  0
VERTEX
  5
DE
330
DC
100
AcDbEntity
  8
_U+56FE_U+5C42 1
 62
     7
420
 16777215
370
     9
100
AcDbVertex
100
AcDb2dVertex
 10
114.8217263295936
 20
91.20145083889366
 30
0.0
  0
VERTEX
  5
DF
330
DC
100
AcDbEntity
  8
_U+56FE_U+5C42 1
 62
     7
420
 16777215
370
     9
100
AcDbVertex
100
AcDb2dVertex
 10
114.8217263295936
 20
77.20220393323714
 30
0.0
  0
VERTEX
  5
E0
330
DC
100
AcDbEntity
  8
_U+56FE_U+5C42 1
 62
     7
420
 16777215
370
     9
100
AcDbVertex
100
AcDb2dVertex
 10
100.8211151683295
 20
77.20220393323714
 30
0.0
  0
VERTEX
  5
E1
330
DC
100
AcDbEntity
  8
_U+56FE_U+5C42 1
 62
     7
420
 16777215
370
     9
100
AcDbVertex
100
AcDb2dVertex
 10
100.8211151683295
 20
91.20145083889366
 30
0.0
  0
SEQEND
  5
E2
330
DC
100
AcDbEntity
  8
_U+56FE_U+5C42 1
 62
     7
420
 16777215
370
     9
  0
POLYLINE
  5
E3
330
1F
100
AcDbEntity
  8
_U+56FE_U+5C42 1
 62
     7
420
 16777215
370
     9
100
AcDb2dPolyline
 66
     1
 10
0.0
 20
0.0
 30
0.0
  0
VERTEX
  5
E4
330
E3
100
AcDbEntity
  8
_U+56FE_U+5C42 1
 62
     7
420
 16777215
370
     9
100
AcDbVertex
100
AcDb2dVertex
 10
119.8708363332807
 20
91.20145083889366
 30
0.0
  0
VERTEX
  5
E5
330
E3
100
AcDbEntity
  8
_U+56FE_U+5C42 1
 62
     7
420
 16777215
370
     9
100
AcDbVertex
100
AcDb2dVertex
 10
133.8716955410189
 20
91.20145083889366
 30
0.0
  0
VERTEX
  5
E6
330
E3
100
AcDbEntity
  8
_U+56FE_U+5C42 1
 62
     7
420
 16777215
370
     9
100
AcDbVertex
100
AcDb2dVertex
 10
133.8716955410189
 20
77.20220393323714
 30
0.0
  0
VERTEX
  5
E7
330
E3
100
AcDbEntity
  8
_U+56FE_U+5C42 1
 62
     7
420
 16777215
370
     9
100
AcDbVertex
100
AcDb2dVertex
 10
119.8708363332807
 20
77.20220393323714
 30
0.0
  0
VERTEX
  5
E8
330
E3
100
AcDbEntity
  8
_U+56FE_U+5C42 1
 62
     7
420
 16777215
370
     9
100
AcDbVertex
100
AcDb2dVertex
 10
119.8708363332807
 20
91.20145083889366
 30
0.0
  0
SEQEND
  5
E9
330
E3
100
AcDbEntity
  8
_U+56FE_U+5C42 1
 62
     7
420
 16777215
370
     9
  0
POLYLINE
  5
EA
330
1F
100
AcDbEntity
  8
_U+56FE_U+5C42 1
 62
     7
420
 16777215
370
     9
100
AcDb2dPolyline
 66
     1
 10
0.0
 20
0.0
 30
0.0
  0
VERTEX
  5
EB
330
EA
100
AcDbEntity
  8
_U+56FE_U+5C42 1
 62
     7
420
 16777215
370
     9
100
AcDbVertex
100
AcDb2dVertex
 10
138.9227899164989
 20
91.20145083889366
 30
0.0
  0
VERTEX
  5
EC
330
EA
100
AcDbEntity
  8
_U+56FE_U+5C42 1
 62
     7
420
 16777215
370
     9
100
AcDbVertex
100
AcDb2dVertex
 10
152.9216647524442
 20
91.20145083889366
 30
0.0
  0
VERTEX
  5
ED
330
EA
100
AcDbEntity
  8
_U+56FE_U+5C42 1
 62
     7
420
 16777215
370
     9
100
AcDbVertex
100
AcDb2dVertex
 10
152.9216647524442
 20
77.20220393323714
 30
0.0
  0
VERTEX
  5
EE
330
EA
100
AcDbEntity
  8
_U+56FE_U+5C42 1
 62
     7
420
 16777215
370
     9
100
AcDbVertex
100
AcDb2dVertex
 10
138.9227899164989
 20
77.20220393323714
 30
0.0
  0
VERTEX
  5
EF
330
EA
100
AcDbEntity
  8
_U+56FE_U+5C42 1
 62
     7
420
 16777215
370
     9
100
AcDbVertex
100
AcDb2dVertex
 10
138.9227899164989
 20
91.20145083889366
 30
0.0
  0
SEQEND
  5
F0
330
EA
100
AcDbEntity
  8
_U+56FE_U+5C42 1
 62
     7
420
 16777215
370
     9
  0
POLYLINE
  5
F1
330
1F
100
AcDbEntity
  8
_U+56FE_U+5C42 1
 62
     7
420
 16777215
370
     9
100
AcDb2dPolyline
 66
     1
 10
0.0
 20
0.0
 30
0.0
  0
VERTEX
  5
F2
330
F1
100
AcDbEntity
  8
_U+56FE_U+5C42 1
 62
     7
420
 16777215
370
     9
100
AcDbVertex
100
AcDb2dVertex
 10
177.0227283393495
 20
91.20145083889366
 30
0.0
  0
VERTEX
  5
F3
330
F1
100
AcDbEntity
  8
_U+56FE_U+5C42 1
 62
     7
420
 16777215
370
     9
100
AcDbVertex
100
AcDb2dVertex
 10
191.0216031752948
 20
91.20145083889366
 30
0.0
  0
VERTEX
  5
F4
330
F1
100
AcDbEntity
  8
_U+56FE_U+5C42 1
 62
     7
420
 16777215
370
     9
100
AcDbVertex
100
AcDb2dVertex
 10
191.0216031752948
 20
77.20220393323714
 30
0.0
  0
VERTEX
  5
F5
330
F1
100
AcDbEntity
  8
_U+56FE_U+5C42 1
 62
     7
420
 16777215
370
     9
100
AcDbVertex
100
AcDb2dVertex
 10
177.0227283393495
 20
77.20220393323714
 30
0.0
  0
VERTEX
  5
F6
330
F1
100
AcDbEntity
  8
_U+56FE_U+5C42 1
 62
     7
420
 16777215
370
     9
100
AcDbVertex
100
AcDb2dVertex
 10
177.0227283393495
 20
91.20145083889366
 30
0.0
  0
SEQEND
  5
F7
330
F1
100
AcDbEntity
  8
_U+56FE_U+5C42 1
 62
     7
420
 16777215
370
     9
  0
POLYLINE
  5
F8
330
1F
100
AcDbEntity
  8
_U+56FE_U+5C42 1
 62
     7
420
 16777215
370
     9
100
AcDb2dPolyline
 66
     1
 10
0.0
 20
0.0
 30
0.0
  0
VERTEX
  5
F9
330
F8
100
AcDbEntity
  8
_U+56FE_U+5C42 1
 62
     7
420
 16777215
370
     9
100
AcDbVertex
100
AcDb2dVertex
 10
196.0726975507748
 20
91.20145083889366
 30
0.0
  0
VERTEX
  5
FA
330
F8
100
AcDbEntity
  8
_U+56FE_U+5C42 1
 62
     7
420
 16777215
370
     9
100
AcDbVertex
100
AcDb2dVertex
 10
210.0715723867201
 20
91.20145083889366
 30
0.0
  0
VERTEX
  5
FB
330
F8
100
AcDbEntity
  8
_U+56FE_U+5C42 1
 62
     7
420
 16777215
370
     9
100
AcDbVertex
100
AcDb2dVertex
 10
210.0715723867201
 20
77.20220393323714
 30
0.0
  0
VERTEX
  5
FC
330
F8
100
AcDbEntity
  8
_U+56FE_U+5C42 1
 62
     7
420
 16777215
370
     9
100
AcDbVertex
100
AcDb2dVertex
 10
196.0726975507748
 20
77.20220393323714
 30
0.0
  0
VERTEX
  5
FD
330
F8
100
AcDbEntity
  8
_U+56FE_U+5C42 1
 62
     7
420
 16777215
370
     9
100
AcDbVertex
100
AcDb2dVertex
 10
196.0726975507748
 20
91.20145083889366
 30
0.0
  0
SEQEND
  5
FE
330
F8
100
AcDbEntity
  8
_U+56FE_U+5C42 1
 62
     7
420
 16777215
370
     9
  0
POLYLINE
  5
FF
330
1F
100
AcDbEntity
  8
_U+56FE_U+5C42 1
 62
     7
420
 16777215
370
     9
100
AcDb2dPolyline
 66
     1
 10
0.0
 20
0.0
 30
0.0
  0
VERTEX
  5
100
330
FF
100
AcDbEntity
  8
_U+56FE_U+5C42 1
 62
     7
420
 16777215
370
     9
100
AcDbVertex
100
AcDb2dVertex
 10
215.1226667622001
 20
91.20145083889366
 30
0.0
  0
VERTEX
  5
101
330
FF
100
AcDbEntity
  8
_U+56FE_U+5C42 1
 62
     7
420
 16777215
370
     9
100
AcDbVertex
100
AcDb2dVertex
 10
229.1215415981454
 20
91.20145083889366
 30
0.0
  0
VERTEX
  5
102
330
FF
100
AcDbEntity
  8
_U+56FE_U+5C42 1
 62
     7
420
 16777215
370
     9
100
AcDbVertex
100
AcDb2dVertex
 10
229.1215415981454
 20
77.20220393323714
 30
0.0
  0
VERTEX
  5
103
330
FF
100
AcDbEntity
  8
_U+56FE_U+5C42 1
 62
     7
420
 16777215
370
     9
100
AcDbVertex
100
AcDb2dVertex
 10
215.1226667622001
 20
77.20220393323714
 30
0.0
  0
VERTEX
  5
104
330
FF
100
AcDbEntity
  8
_U+56FE_U+5C42 1
 62
     7
420
 16777215
370
     9
100
AcDbVertex
100
AcDb2dVertex
 10
215.1226667622001
 20
91.20145083889366
 30
0.0
  0
SEQEND
  5
105
330
FF
100
AcDbEntity
  8
_U+56FE_U+5C42 1
 62
     7
420
 16777215
370
     9
  0
POLYLINE
  5
106
330
1F
100
AcDbEntity
  8
_U+56FE_U+5C42 1
 62
     7
420
 16777215
370
     9
100
AcDb2dPolyline
 66
     1
 10
0.0
 20
0.0
 30
0.0
  0
VERTEX
  5
107
330
106
100
AcDbEntity
  8
_U+56FE_U+5C42 1
 62
     7
420
 16777215
370
     9
100
AcDbVertex
100
AcDb2dVertex
 10
7.953879518238732
 20
72.15148162746836
 30
0.0
  0
VERTEX
  5
108
330
106
100
AcDbEntity
  8
_U+56FE_U+5C42 1
 62
     7
420
 16777215
370
     9
100
AcDbVertex
100
AcDb2dVertex
 10
21.95331245875084
 20
72.15148162746836
 30
0.0
  0
VERTEX
  5
109
330
106
100
AcDbEntity
  8
_U+56FE_U+5C42 1
 62
     7
420
 16777215
370
     9
100
AcDbVertex
100
AcDb2dVertex
 10
21.95331245875084
 20
58.15223472181183
 30
0.0
  0
VERTEX
  5
10A
330
106
100
AcDbEntity
  8
_U+56FE_U+5C42 1
 62
     7
420
 16777215
370
     9
100
AcDbVertex
100
AcDb2dVertex
 10
7.953879518238732
 20
58.15223472181183
 30
0.0
  0
VERTEX
  5
10B
330
106
100
AcDbEntity
  8
_U+56FE_U+5C42 1
 62
     7
420
 16777215
370
     9
100
AcDbVertex
100
AcDb2dVertex
 10
7.953879518238732
 20
72.15148162746836
 30
0.0
  0
SEQEND
  5
10C
330
106
100
AcDbEntity
  8
_U+56FE_U+5C42 1
 62
     7
420
 16777215
370
     9
  0
POLYLINE
  5
10D
330
1F
100
AcDbEntity
  8
_U+56FE_U+5C42 1
 62
     7
420
 16777215
370
     9
100
AcDb2dPolyline
 66
     1
 10
0.0
 20
0.0
 30
0.0
  0
VERTEX
  5
10E
330
10D
100
AcDbEntity
  8
_U+56FE_U+5C42 1
 62
     7
420
 16777215
370
     9
100
AcDbVertex
100
AcDb2dVertex
 10
29.38515689271073
 20
72.15148162746836
 30
0.0
  0
VERTEX
  5
10F
330
10D
100
AcDbEntity
  8
_U+56FE_U+5C42 1
 62
     7
420
 16777215
370
     9
100
AcDbVertex
100
AcDb2dVertex
 10
43.38440379836725
 20
72.15148162746836
 30
0.0
  0
VERTEX
  5
110
330
10D
100
AcDbEntity
  8
_U+56FE_U+5C42 1
 62
     7
420
 16777215
370
     9
100
AcDbVertex
100
AcDb2dVertex
 10
43.38440379836725
 20
58.15223472181183
 30
0.0
  0
VERTEX
  5
111
330
10D
100
AcDbEntity
  8
_U+56FE_U+5C42 1
 62
     7
420
 16777215
370
     9
100
AcDbVertex
100
AcDb2dVertex
 10
29.38515689271073
 20
58.15223472181183
 30
0.0
  0
VERTEX
  5
112
330
10D
100
AcDbEntity
  8
_U+56FE_U+5C42 1
 62
     7
420
 16777215
370
     9
100
AcDbVertex
100
AcDb2dVertex
 10
29.38515689271073
 20
72.15148162746836
 30
0.0
  0
SEQEND
  5
113
330
10D
100
AcDbEntity
  8
_U+56FE_U+5C42 1
 62
     7
420
 16777215
370
     9
  0
POLYLINE
  5
114
330
1F
100
AcDbEntity
  8
_U+56FE_U+5C42 1
 62
     7
420
 16777215
370
     9
100
AcDb2dPolyline
 66
     1
 10
0.0
 20
0.0
 30
0.0
  0
VERTEX
  5
115
330
114
100
AcDbEntity
  8
_U+56FE_U+5C42 1
 62
     7
420
 16777215
370
     9
100
AcDbVertex
100
AcDb2dVertex
 10
48.43512610413603
 20
72.15148162746836
 30
0.0
  0
VERTEX
  5
116
330
114
100
AcDbEntity
  8
_U+56FE_U+5C42 1
 62
     7
420
 16777215
370
     9
100
AcDbVertex
100
AcDb2dVertex
 10
62.43431099817403
 20
72.15148162746836
 30
0.0
  0
VERTEX
  5
117
330
114
100
AcDbEntity
  8
_U+56FE_U+5C42 1
 62
     7
420
 16777215
370
     9
100
AcDbVertex
100
AcDb2dVertex
 10
62.43431099817403
 20
58.15223472181183
 30
0.0
  0
VERTEX
  5
118
330
114
100
AcDbEntity
  8
_U+56FE_U+5C42 1
 62
     7
420
 16777215
370
     9
100
AcDbVertex
100
AcDb2dVertex
 10
48.43512610413603
 20
58.15223472181183
 30
0.0
  0
VERTEX
  5
119
330
114
100
AcDbEntity
  8
_U+56FE_U+5C42 1
 62
     7
420
 16777215
370
     9
100
AcDbVertex
100
AcDb2dVertex
 10
48.43512610413603
 20
72.15148162746836
 30
0.0
  0
SEQEND
  5
11A
330
114
100
AcDbEntity
  8
_U+56FE_U+5C42 1
 62
     7
420
 16777215
370
     9
  0
POLYLINE
  5
11B
330
1F
100
AcDbEntity
  8
_U+56FE_U+5C42 1
 62
     7
420
 16777215
370
     9
100
AcDb2dPolyline
 66
     1
 10
0.0
 20
0.0
 30
0.0
  0
VERTEX
  5
11C
330
11B
100
AcDbEntity
  8
_U+56FE_U+5C42 1
 62
     7
420
 16777215
370
     9
100
AcDbVertex
100
AcDb2dVertex
 10
67.4850333039428
 20
72.15148162746836
 30
0.0
  0
VERTEX
  5
11D
330
11B
100
AcDbEntity
  8
_U+56FE_U+5C42 1
 62
     7
420
 16777215
370
     9
100
AcDbVertex
100
AcDb2dVertex
 10
81.48428020959933
 20
72.15148162746836
 30
0.0
  0
VERTEX
  5
11E
330
11B
100
AcDbEntity
  8
_U+56FE_U+5C42 1
 62
     7
420
 16777215
370
     9
100
AcDbVertex
100
AcDb2dVertex
 10
81.48428020959933
 20
58.15223472181183
 30
0.0
  0
VERTEX
  5
11F
330
11B
100
AcDbEntity
  8
_U+56FE_U+5C42 1
 62
     7
420
 16777215
370
     9
100
AcDbVertex
100
AcDb2dVertex
 10
67.4850333039428
 20
58.15223472181183
 30
0.0
  0
VERTEX
  5
120
330
11B
100
AcDbEntity
  8
_U+56FE_U+5C42 1
 62
     7
420
 16777215
370
     9
100
AcDbVertex
100
AcDb2dVertex
 10
67.4850333039428
 20
72.15148162746836
 30
0.0
  0
SEQEND
  5
121
330
11B
100
AcDbEntity
  8
_U+56FE_U+5C42 1
 62
     7
420
 16777215
370
     9
  0
POLYLINE
  5
122
330
1F
100
AcDbEntity
  8
_U+56FE_U+5C42 1
 62
     7
420
 16777215
370
     9
100
AcDb2dPolyline
 66
     1
 10
0.0
 20
0.0
 30
0.0
  0
VERTEX
  5
123
330
122
100
AcDbEntity
  8
_U+56FE_U+5C42 1
 62
     7
420
 16777215
370
     9
100
AcDbVertex
100
AcDb2dVertex
 10
86.5350025153681
 20
72.15148162746836
 30
0.0
  0
VERTEX
  5
124
330
122
100
AcDbEntity
  8
_U+56FE_U+5C42 1
 62
     7
420
 16777215
370
     9
100
AcDbVertex
100
AcDb2dVertex
 10
100.5342494210246
 20
72.15148162746836
 30
0.0
  0
VERTEX
  5
125
330
122
100
AcDbEntity
  8
_U+56FE_U+5C42 1
 62
     7
420
 16777215
370
     9
100
AcDbVertex
100
AcDb2dVertex
 10
100.5342494210246
 20
58.15223472181183
 30
0.0
  0
VERTEX
  5
126
330
122
100
AcDbEntity
  8
_U+56FE_U+5C42 1
 62
     7
420
 16777215
370
     9
100
AcDbVertex
100
AcDb2dVertex
 10
86.5350025153681
 20
58.15223472181183
 30
0.0
  0
VERTEX
  5
127
330
122
100
AcDbEntity
  8
_U+56FE_U+5C42 1
 62
     7
420
 16777215
370
     9
100
AcDbVertex
100
AcDb2dVertex
 10
86.5350025153681
 20
72.15148162746836
 30
0.0
  0
SEQEND
  5
128
330
122
100
AcDbEntity
  8
_U+56FE_U+5C42 1
 62
     7
420
 16777215
370
     9
  0
POLYLINE
  5
129
330
1F
100
AcDbEntity
  8
_U+56FE_U+5C42 1
 62
     7
420
 16777215
370
     9
100
AcDb2dPolyline
 66
     1
 10
0.0
 20
0.0
 30
0.0
  0
VERTEX
  5
12A
330
129
100
AcDbEntity
  8
_U+56FE_U+5C42 1
 62
     7
420
 16777215
370
     9
100
AcDbVertex
100
AcDb2dVertex
 10
105.5848477035564
 20
72.15148162746836
 30
0.0
  0
VERTEX
  5
12B
330
129
100
AcDbEntity
  8
_U+56FE_U+5C42 1
 62
     7
420
 16777215
370
     9
100
AcDbVertex
100
AcDb2dVertex
 10
119.5848387486352
 20
72.15148162746836
 30
0.0
  0
VERTEX
  5
12C
330
129
100
AcDbEntity
  8
_U+56FE_U+5C42 1
 62
     7
420
 16777215
370
     9
100
AcDbVertex
100
AcDb2dVertex
 10
119.5848387486352
 20
58.15223472181183
 30
0.0
  0
VERTEX
  5
12D
330
129
100
AcDbEntity
  8
_U+56FE_U+5C42 1
 62
     7
420
 16777215
370
     9
100
AcDbVertex
100
AcDb2dVertex
 10
105.5848477035564
 20
58.15223472181183
 30
0.0
  0
VERTEX
  5
12E
330
129
100
AcDbEntity
  8
_U+56FE_U+5C42 1
 62
     7
420
 16777215
370
     9
100
AcDbVertex
100
AcDb2dVertex
 10
105.5848477035564
 20
72.15148162746836
 30
0.0
  0
SEQEND
  5
12F
330
129
100
AcDbEntity
  8
_U+56FE_U+5C42 1
 62
     7
420
 16777215
370
     9
  0
POLYLINE
  5
130
330
1F
100
AcDbEntity
  8
_U+56FE_U+5C42 1
 62
     7
420
 16777215
370
     9
100
AcDb2dPolyline
 66
     1
 10
0.0
 20
0.0
 30
0.0
  0
VERTEX
  5
131
330
130
100
AcDbEntity
  8
_U+56FE_U+5C42 1
 62
     7
420
 16777215
370
     9
100
AcDbVertex
100
AcDb2dVertex
 10
124.6348169149817
 20
72.15148162746836
 30
0.0
  0
VERTEX
  5
132
330
130
100
AcDbEntity
  8
_U+56FE_U+5C42 1
 62
     7
420
 16777215
370
     9
100
AcDbVertex
100
AcDb2dVertex
 10
138.6348079600605
 20
72.15148162746836
 30
0.0
  0
VERTEX
  5
133
330
130
100
AcDbEntity
  8
_U+56FE_U+5C42 1
 62
     7
420
 16777215
370
     9
100
AcDbVertex
100
AcDb2dVertex
 10
138.6348079600605
 20
58.15223472181183
 30
0.0
  0
VERTEX
  5
134
330
130
100
AcDbEntity
  8
_U+56FE_U+5C42 1
 62
     7
420
 16777215
370
     9
100
AcDbVertex
100
AcDb2dVertex
 10
124.6348169149817
 20
58.15223472181183
 30
0.0
  0
VERTEX
  5
135
330
130
100
AcDbEntity
  8
_U+56FE_U+5C42 1
 62
     7
420
 16777215
370
     9
100
AcDbVertex
100
AcDb2dVertex
 10
124.6348169149817
 20
72.15148162746836
 30
0.0
  0
SEQEND
  5
136
330
130
100
AcDbEntity
  8
_U+56FE_U+5C42 1
 62
     7
420
 16777215
370
     9
  0
POLYLINE
  5
137
330
1F
100
AcDbEntity
  8
_U+56FE_U+5C42 1
 62
     7
420
 16777215
370
     9
100
AcDb2dPolyline
 66
     1
 10
0.0
 20
0.0
 30
0.0
  0
VERTEX
  5
138
330
137
100
AcDbEntity
  8
_U+56FE_U+5C42 1
 62
     7
420
 16777215
370
     9
100
AcDbVertex
100
AcDb2dVertex
 10
143.684786126407
 20
72.15148162746836
 30
0.0
  0
VERTEX
  5
139
330
137
100
AcDbEntity
  8
_U+56FE_U+5C42 1
 62
     7
420
 16777215
370
     9
100
AcDbVertex
100
AcDb2dVertex
 10
157.6847771714858
 20
72.15148162746836
 30
0.0
  0
VERTEX
  5
13A
330
137
100
AcDbEntity
  8
_U+56FE_U+5C42 1
 62
     7
420
 16777215
370
     9
100
AcDbVertex
100
AcDb2dVertex
 10
157.6847771714858
 20
58.15223472181183
 30
0.0
  0
VERTEX
  5
13B
330
137
100
AcDbEntity
  8
_U+56FE_U+5C42 1
 62
     7
420
 16777215
370
     9
100
AcDbVertex
100
AcDb2dVertex
 10
143.684786126407
 20
58.15223472181183
 30
0.0
  0
VERTEX
  5
13C
330
137
100
AcDbEntity
  8
_U+56FE_U+5C42 1
 62
     7
420
 16777215
370
     9
100
AcDbVertex
100
AcDb2dVertex
 10
143.684786126407
 20
72.15148162746836
 30
0.0
  0
SEQEND
  5
13D
330
137
100
AcDbEntity
  8
_U+56FE_U+5C42 1
 62
     7
420
 16777215
370
     9
  0
POLYLINE
  5
13E
330
1F
100
AcDbEntity
  8
_U+56FE_U+5C42 1
 62
     7
420
 16777215
370
     9
100
AcDb2dPolyline
 66
     1
 10
0.0
 20
0.0
 30
0.0
  0
VERTEX
  5
13F
330
13E
100
AcDbEntity
  8
_U+56FE_U+5C42 1
 62
     7
420
 16777215
370
     9
100
AcDbVertex
100
AcDb2dVertex
 10
162.7347553378323
 20
72.15148162746836
 30
0.0
  0
VERTEX
  5
140
330
13E
100
AcDbEntity
  8
_U+56FE_U+5C42 1
 62
     7
420
 16777215
370
     9
100
AcDbVertex
100
AcDb2dVertex
 10
176.7347463829111
 20
72.15148162746836
 30
0.0
  0
VERTEX
  5
141
330
13E
100
AcDbEntity
  8
_U+56FE_U+5C42 1
 62
     7
420
 16777215
370
     9
100
AcDbVertex
100
AcDb2dVertex
 10
176.7347463829111
 20
58.15223472181183
 30
0.0
  0
VERTEX
  5
142
330
13E
100
AcDbEntity
  8
_U+56FE_U+5C42 1
 62
     7
420
 16777215
370
     9
100
AcDbVertex
100
AcDb2dVertex
 10
162.7347553378323
 20
58.15223472181183
 30
0.0
  0
VERTEX
  5
143
330
13E
100
AcDbEntity
  8
_U+56FE_U+5C42 1
 62
     7
420
 16777215
370
     9
100
AcDbVertex
100
AcDb2dVertex
 10
162.7347553378323
 20
72.15148162746836
 30
0.0
  0
SEQEND
  5
144
330
13E
100
AcDbEntity
  8
_U+56FE_U+5C42 1
 62
     7
420
 16777215
370
     9
  0
POLYLINE
  5
145
330
1F
100
AcDbEntity
  8
_U+56FE_U+5C42 1
 62
     7
420
 16777215
370
     9
100
AcDb2dPolyline
 66
     1
 10
0.0
 20
0.0
 30
0.0
  0
VERTEX
  5
146
330
145
100
AcDbEntity
  8
_U+56FE_U+5C42 1
 62
     7
420
 16777215
370
     9
100
AcDbVertex
100
AcDb2dVertex
 10
181.7847245492576
 20
72.15148162746836
 30
0.0
  0
VERTEX
  5
147
330
145
100
AcDbEntity
  8
_U+56FE_U+5C42 1
 62
     7
420
 16777215
370
     9
100
AcDbVertex
100
AcDb2dVertex
 10
195.7847155943364
 20
72.15148162746836
 30
0.0
  0
VERTEX
  5
148
330
145
100
AcDbEntity
  8
_U+56FE_U+5C42 1
 62
     7
420
 16777215
370
     9
100
AcDbVertex
100
AcDb2dVertex
 10
195.7847155943364
 20
58.15223472181183
 30
0.0
  0
VERTEX
  5
149
330
145
100
AcDbEntity
  8
_U+56FE_U+5C42 1
 62
     7
420
 16777215
370
     9
100
AcDbVertex
100
AcDb2dVertex
 10
181.7847245492576
 20
58.15223472181183
 30
0.0
  0
VERTEX
  5
14A
330
145
100
AcDbEntity
  8
_U+56FE_U+5C42 1
 62
     7
420
 16777215
370
     9
100
AcDbVertex
100
AcDb2dVertex
 10
181.7847245492576
 20
72.15148162746836
 30
0.0
  0
SEQEND
  5
14B
330
145
100
AcDbEntity
  8
_U+56FE_U+5C42 1
 62
     7
420
 16777215
370
     9
  0
POLYLINE
  5
14C
330
1F
100
AcDbEntity
  8
_U+56FE_U+5C42 1
 62
     7
420
 16777215
370
     9
100
AcDb2dPolyline
 66
     1
 10
0.0
 20
0.0
 30
0.0
  0
VERTEX
  5
14D
330
14C
100
AcDbEntity
  8
_U+56FE_U+5C42 1
 62
     7
420
 16777215
370
     9
100
AcDbVertex
100
AcDb2dVertex
 10
207.9786802614415
 20
72.15148162746836
 30
0.0
  0
VERTEX
  5
14E
330
14C
100
AcDbEntity
  8
_U+56FE_U+5C42 1
 62
     7
420
 16777215
370
     9
100
AcDbVertex
100
AcDb2dVertex
 10
221.9776791206239
 20
72.15148162746836
 30
0.0
  0
VERTEX
  5
14F
330
14C
100
AcDbEntity
  8
_U+56FE_U+5C42 1
 62
     7
420
 16777215
370
     9
100
AcDbVertex
100
AcDb2dVertex
 10
221.9776791206239
 20
58.15223472181183
 30
0.0
  0
VERTEX
  5
150
330
14C
100
AcDbEntity
  8
_U+56FE_U+5C42 1
 62
     7
420
 16777215
370
     9
100
AcDbVertex
100
AcDb2dVertex
 10
207.9786802614415
 20
58.15223472181183
 30
0.0
  0
VERTEX
  5
151
330
14C
100
AcDbEntity
  8
_U+56FE_U+5C42 1
 62
     7
420
 16777215
370
     9
100
AcDbVertex
100
AcDb2dVertex
 10
207.9786802614415
 20
72.15148162746836
 30
0.0
  0
SEQEND
  5
152
330
14C
100
AcDbEntity
  8
_U+56FE_U+5C42 1
 62
     7
420
 16777215
370
     9
  0
POLYLINE
  5
153
330
1F
100
AcDbEntity
  8
_U+56FE_U+5C42 1
 62
     7
420
 16777215
370
     9
100
AcDb2dPolyline
 66
     1
 10
0.0
 20
0.0
 30
0.0
  0
VERTEX
  5
154
330
153
100
AcDbEntity
  8
_U+56FE_U+5C42 1
 62
     7
420
 16777215
370
     9
100
AcDbVertex
100
AcDb2dVertex
 10
12.71500756548747
 20
53.101388392806
 30
0.0
  0
VERTEX
  5
155
330
153
100
AcDbEntity
  8
_U+56FE_U+5C42 1
 62
     7
420
 16777215
370
     9
100
AcDbVertex
100
AcDb2dVertex
 10
26.71580476160716
 20
53.101388392806
 30
0.0
  0
VERTEX
  5
156
330
153
100
AcDbEntity
  8
_U+56FE_U+5C42 1
 62
     7
420
 16777215
370
     9
100
AcDbVertex
100
AcDb2dVertex
 10
26.71580476160716
 20
39.10201746391242
 30
0.0
  0
VERTEX
  5
157
330
153
100
AcDbEntity
  8
_U+56FE_U+5C42 1
 62
     7
420
 16777215
370
     9
100
AcDbVertex
100
AcDb2dVertex
 10
12.71500756548747
 20
39.10201746391242
 30
0.0
  0
VERTEX
  5
158
330
153
100
AcDbEntity
  8
_U+56FE_U+5C42 1
 62
     7
420
 16777215
370
     9
100
AcDbVertex
100
AcDb2dVertex
 10
12.71500756548747
 20
53.101388392806
 30
0.0
  0
SEQEND
  5
159
330
153
100
AcDbEntity
  8
_U+56FE_U+5C42 1
 62
     7
420
 16777215
370
     9
  0
POLYLINE
  5
15A
330
1F
100
AcDbEntity
  8
_U+56FE_U+5C42 1
 62
     7
420
 16777215
370
     9
100
AcDb2dPolyline
 66
     1
 10
0.0
 20
0.0
 30
0.0
  0
VERTEX
  5
15B
330
15A
100
AcDbEntity
  8
_U+56FE_U+5C42 1
 62
     7
420
 16777215
370
     9
100
AcDbVertex
100
AcDb2dVertex
 10
57.96011070984868
 20
53.101388392806
 30
0.0
  0
VERTEX
  5
15C
330
15A
100
AcDbEntity
  8
_U+56FE_U+5C42 1
 62
     7
420
 16777215
370
     9
100
AcDbVertex
100
AcDb2dVertex
 10
71.95929560388669
 20
53.101388392806
 30
0.0
  0
VERTEX
  5
15D
330
15A
100
AcDbEntity
  8
_U+56FE_U+5C42 1
 62
     7
420
 16777215
370
     9
100
AcDbVertex
100
AcDb2dVertex
 10
71.95929560388669
 20
39.10201746391242
 30
0.0
  0
VERTEX
  5
15E
330
15A
100
AcDbEntity
  8
_U+56FE_U+5C42 1
 62
     7
420
 16777215
370
     9
100
AcDbVertex
100
AcDb2dVertex
 10
57.96011070984868
 20
39.10201746391242
 30
0.0
  0
VERTEX
  5
15F
330
15A
100
AcDbEntity
  8
_U+56FE_U+5C42 1
 62
     7
420
 16777215
370
     9
100
AcDbVertex
100
AcDb2dVertex
 10
57.96011070984868
 20
53.101388392806
 30
0.0
  0
SEQEND
  5
160
330
15A
100
AcDbEntity
  8
_U+56FE_U+5C42 1
 62
     7
420
 16777215
370
     9
  0
POLYLINE
  5
161
330
1F
100
AcDbEntity
  8
_U+56FE_U+5C42 1
 62
     7
420
 16777215
370
     9
100
AcDb2dPolyline
 66
     1
 10
0.0
 20
0.0
 30
0.0
  0
VERTEX
  5
162
330
161
100
AcDbEntity
  8
_U+56FE_U+5C42 1
 62
     7
420
 16777215
370
     9
100
AcDbVertex
100
AcDb2dVertex
 10
77.01001790965546
 20
53.101388392806
 30
0.0
  0
VERTEX
  5
163
330
161
100
AcDbEntity
  8
_U+56FE_U+5C42 1
 62
     7
420
 16777215
370
     9
100
AcDbVertex
100
AcDb2dVertex
 10
91.00926481531198
 20
53.101388392806
 30
0.0
  0
VERTEX
  5
164
330
161
100
AcDbEntity
  8
_U+56FE_U+5C42 1
 62
     7
420
 16777215
370
     9
100
AcDbVertex
100
AcDb2dVertex
 10
91.00926481531198
 20
39.10201746391242
 30
0.0
  0
VERTEX
  5
165
330
161
100
AcDbEntity
  8
_U+56FE_U+5C42 1
 62
     7
420
 16777215
370
     9
100
AcDbVertex
100
AcDb2dVertex
 10
77.01001790965546
 20
39.10201746391242
 30
0.0
  0
VERTEX
  5
166
330
161
100
AcDbEntity
  8
_U+56FE_U+5C42 1
 62
     7
420
 16777215
370
     9
100
AcDbVertex
100
AcDb2dVertex
 10
77.01001790965546
 20
53.101388392806
 30
0.0
  0
SEQEND
  5
167
330
161
100
AcDbEntity
  8
_U+56FE_U+5C42 1
 62
     7
420
 16777215
370
     9
  0
POLYLINE
  5
168
330
1F
100
AcDbEntity
  8
_U+56FE_U+5C42 1
 62
     7
420
 16777215
370
     9
100
AcDb2dPolyline
 66
     1
 10
0.0
 20
0.0
 30
0.0
  0
VERTEX
  5
169
330
168
100
AcDbEntity
  8
_U+56FE_U+5C42 1
 62
     7
420
 16777215
370
     9
100
AcDbVertex
100
AcDb2dVertex
 10
96.05998712108077
 20
53.101388392806
 30
0.0
  0
VERTEX
  5
16A
330
168
100
AcDbEntity
  8
_U+56FE_U+5C42 1
 62
     7
420
 16777215
370
     9
100
AcDbVertex
100
AcDb2dVertex
 10
110.0598541429226
 20
53.101388392806
 30
0.0
  0
VERTEX
  5
16B
330
168
100
AcDbEntity
  8
_U+56FE_U+5C42 1
 62
     7
420
 16777215
370
     9
100
AcDbVertex
100
AcDb2dVertex
 10
110.0598541429226
 20
39.10201746391242
 30
0.0
  0
VERTEX
  5
16C
330
168
100
AcDbEntity
  8
_U+56FE_U+5C42 1
 62
     7
420
 16777215
370
     9
100
AcDbVertex
100
AcDb2dVertex
 10
96.05998712108077
 20
39.10201746391242
 30
0.0
  0
VERTEX
  5
16D
330
168
100
AcDbEntity
  8
_U+56FE_U+5C42 1
 62
     7
420
 16777215
370
     9
100
AcDbVertex
100
AcDb2dVertex
 10
96.05998712108077
 20
53.101388392806
 30
0.0
  0
SEQEND
  5
16E
330
168
100
AcDbEntity
  8
_U+56FE_U+5C42 1
 62
     7
420
 16777215
370
     9
  0
POLYLINE
  5
16F
330
1F
100
AcDbEntity
  8
_U+56FE_U+5C42 1
 62
     7
420
 16777215
370
     9
100
AcDb2dPolyline
 66
     1
 10
0.0
 20
0.0
 30
0.0
  0
VERTEX
  5
170
330
16F
100
AcDbEntity
  8
_U+56FE_U+5C42 1
 62
     7
420
 16777215
370
     9
100
AcDbVertex
100
AcDb2dVertex
 10
115.109832309269
 20
53.101388392806
 30
0.0
  0
VERTEX
  5
171
330
16F
100
AcDbEntity
  8
_U+56FE_U+5C42 1
 62
     7
420
 16777215
370
     9
100
AcDbVertex
100
AcDb2dVertex
 10
129.1098233543479
 20
53.101388392806
 30
0.0
  0
VERTEX
  5
172
330
16F
100
AcDbEntity
  8
_U+56FE_U+5C42 1
 62
     7
420
 16777215
370
     9
100
AcDbVertex
100
AcDb2dVertex
 10
129.1098233543479
 20
39.10201746391242
 30
0.0
  0
VERTEX
  5
173
330
16F
100
AcDbEntity
  8
_U+56FE_U+5C42 1
 62
     7
420
 16777215
370
     9
100
AcDbVertex
100
AcDb2dVertex
 10
115.109832309269
 20
39.10201746391242
 30
0.0
  0
VERTEX
  5
174
330
16F
100
AcDbEntity
  8
_U+56FE_U+5C42 1
 62
     7
420
 16777215
370
     9
100
AcDbVertex
100
AcDb2dVertex
 10
115.109832309269
 20
53.101388392806
 30
0.0
  0
SEQEND
  5
175
330
16F
100
AcDbEntity
  8
_U+56FE_U+5C42 1
 62
     7
420
 16777215
370
     9
  0
POLYLINE
  5
176
330
1F
100
AcDbEntity
  8
_U+56FE_U+5C42 1
 62
     7
420
 16777215
370
     9
100
AcDb2dPolyline
 66
     1
 10
0.0
 20
0.0
 30
0.0
  0
VERTEX
  5
177
330
176
100
AcDbEntity
  8
_U+56FE_U+5C42 1
 62
     7
420
 16777215
370
     9
100
AcDbVertex
100
AcDb2dVertex
 10
134.1598015206943
 20
53.101388392806
 30
0.0
  0
VERTEX
  5
178
330
176
100
AcDbEntity
  8
_U+56FE_U+5C42 1
 62
     7
420
 16777215
370
     9
100
AcDbVertex
100
AcDb2dVertex
 10
148.1597925657732
 20
53.101388392806
 30
0.0
  0
VERTEX
  5
179
330
176
100
AcDbEntity
  8
_U+56FE_U+5C42 1
 62
     7
420
 16777215
370
     9
100
AcDbVertex
100
AcDb2dVertex
 10
148.1597925657732
 20
39.10201746391242
 30
0.0
  0
VERTEX
  5
17A
330
176
100
AcDbEntity
  8
_U+56FE_U+5C42 1
 62
     7
420
 16777215
370
     9
100
AcDbVertex
100
AcDb2dVertex
 10
134.1598015206943
 20
39.10201746391242
 30
0.0
  0
VERTEX
  5
17B
330
176
100
AcDbEntity
  8
_U+56FE_U+5C42 1
 62
     7
420
 16777215
370
     9
100
AcDbVertex
100
AcDb2dVertex
 10
134.1598015206943
 20
53.101388392806
 30
0.0
  0
SEQEND
  5
17C
330
176
100
AcDbEntity
  8
_U+56FE_U+5C42 1
 62
     7
420
 16777215
370
     9
  0
POLYLINE
  5
17D
330
1F
100
AcDbEntity
  8
_U+56FE_U+5C42 1
 62
     7
420
 16777215
370
     9
100
AcDb2dPolyline
 66
     1
 10
0.0
 20
0.0
 30
0.0
  0
VERTEX
  5
17E
330
17D
100
AcDbEntity
  8
_U+56FE_U+5C42 1
 62
     7
420
 16777215
370
     9
100
AcDbVertex
100
AcDb2dVertex
 10
153.2097707321196
 20
53.101388392806
 30
0.0
  0
VERTEX
  5
17F
330
17D
100
AcDbEntity
  8
_U+56FE_U+5C42 1
 62
     7
420
 16777215
370
     9
100
AcDbVertex
100
AcDb2dVertex
 10
167.2097617771985
 20
53.101388392806
 30
0.0
  0
VERTEX
  5
180
330
17D
100
AcDbEntity
  8
_U+56FE_U+5C42 1
 62
     7
420
 16777215
370
     9
100
AcDbVertex
100
AcDb2dVertex
 10
167.2097617771985
 20
39.10201746391242
 30
0.0
  0
VERTEX
  5
181
330
17D
100
AcDbEntity
  8
_U+56FE_U+5C42 1
 62
     7
420
 16777215
370
     9
100
AcDbVertex
100
AcDb2dVertex
 10
153.2097707321196
 20
39.10201746391242
 30
0.0
  0
VERTEX
  5
182
330
17D
100
AcDbEntity
  8
_U+56FE_U+5C42 1
 62
     7
420
 16777215
370
     9
100
AcDbVertex
100
AcDb2dVertex
 10
153.2097707321196
 20
53.101388392806
 30
0.0
  0
SEQEND
  5
183
330
17D
100
AcDbEntity
  8
_U+56FE_U+5C42 1
 62
     7
420
 16777215
370
     9
  0
POLYLINE
  5
184
330
1F
100
AcDbEntity
  8
_U+56FE_U+5C42 1
 62
     7
420
 16777215
370
     9
100
AcDb2dPolyline
 66
     1
 10
0.0
 20
0.0
 30
0.0
  0
VERTEX
  5
185
330
184
100
AcDbEntity
  8
_U+56FE_U+5C42 1
 62
     7
420
 16777215
370
     9
100
AcDbVertex
100
AcDb2dVertex
 10
172.2597399435449
 20
53.101388392806
 30
0.0
  0
VERTEX
  5
186
330
184
100
AcDbEntity
  8
_U+56FE_U+5C42 1
 62
     7
420
 16777215
370
     9
100
AcDbVertex
100
AcDb2dVertex
 10
186.2597309886238
 20
53.101388392806
 30
0.0
  0
VERTEX
  5
187
330
184
100
AcDbEntity
  8
_U+56FE_U+5C42 1
 62
     7
420
 16777215
370
     9
100
AcDbVertex
100
AcDb2dVertex
 10
186.2597309886238
 20
39.10201746391242
 30
0.0
  0
VERTEX
  5
188
330
184
100
AcDbEntity
  8
_U+56FE_U+5C42 1
 62
     7
420
 16777215
370
     9
100
AcDbVertex
100
AcDb2dVertex
 10
172.2597399435449
 20
39.10201746391242
 30
0.0
  0
VERTEX
  5
189
330
184
100
AcDbEntity
  8
_U+56FE_U+5C42 1
 62
     7
420
 16777215
370
     9
100
AcDbVertex
100
AcDb2dVertex
 10
172.2597399435449
 20
53.101388392806
 30
0.0
  0
SEQEND
  5
18A
330
184
100
AcDbEntity
  8
_U+56FE_U+5C42 1
 62
     7
420
 16777215
370
     9
  0
POLYLINE
  5
18B
330
1F
100
AcDbEntity
  8
_U+56FE_U+5C42 1
 62
     7
420
 16777215
370
     9
100
AcDb2dPolyline
 66
     1
 10
0.0
 20
0.0
 30
0.0
  0
VERTEX
  5
18C
330
18B
100
AcDbEntity
  8
_U+56FE_U+5C42 1
 62
     7
420
 16777215
370
     9
100
AcDbVertex
100
AcDb2dVertex
 10
191.3097091549702
 20
53.101388392806
 30
0.0
  0
VERTEX
  5
18D
330
18B
100
AcDbEntity
  8
_U+56FE_U+5C42 1
 62
     7
420
 16777215
370
     9
100
AcDbVertex
100
AcDb2dVertex
 10
205.3097002000491
 20
53.101388392806
 30
0.0
  0
VERTEX
  5
18E
330
18B
100
AcDbEntity
  8
_U+56FE_U+5C42 1
 62
     7
420
 16777215
370
     9
100
AcDbVertex
100
AcDb2dVertex
 10
205.3097002000491
 20
39.10201746391242
 30
0.0
  0
VERTEX
  5
18F
330
18B
100
AcDbEntity
  8
_U+56FE_U+5C42 1
 62
     7
420
 16777215
370
     9
100
AcDbVertex
100
AcDb2dVertex
 10
191.3097091549702
 20
39.10201746391242
 30
0.0
  0
VERTEX
  5
190
330
18B
100
AcDbEntity
  8
_U+56FE_U+5C42 1
 62
     7
420
 16777215
370
     9
100
AcDbVertex
100
AcDb2dVertex
 10
191.3097091549702
 20
53.101388392806
 30
0.0
  0
SEQEND
  5
191
330
18B
100
AcDbEntity
  8
_U+56FE_U+5C42 1
 62
     7
420
 16777215
370
     9
  0
POLYLINE
  5
192
330
1F
100
AcDbEntity
  8
_U+56FE_U+5C42 1
 62
     7
420
 16777215
370
     9
100
AcDb2dPolyline
 66
     1
 10
0.0
 20
0.0
 30
0.0
  0
VERTEX
  5
193
330
192
100
AcDbEntity
  8
_U+56FE_U+5C42 1
 62
     7
420
 16777215
370
     9
100
AcDbVertex
100
AcDb2dVertex
 10
212.7396842854532
 20
53.101388392806
 30
0.0
  0
VERTEX
  5
194
330
192
100
AcDbEntity
  8
_U+56FE_U+5C42 1
 62
     7
420
 16777215
370
     9
100
AcDbVertex
100
AcDb2dVertex
 10
226.7405434931914
 20
53.101388392806
 30
0.0
  0
VERTEX
  5
195
330
192
100
AcDbEntity
  8
_U+56FE_U+5C42 1
 62
     7
420
 16777215
370
     9
100
AcDbVertex
100
AcDb2dVertex
 10
226.7405434931914
 20
39.10201746391242
 30
0.0
  0
VERTEX
  5
196
330
192
100
AcDbEntity
  8
_U+56FE_U+5C42 1
 62
     7
420
 16777215
370
     9
100
AcDbVertex
100
AcDb2dVertex
 10
212.7396842854532
 20
39.10201746391242
 30
0.0
  0
VERTEX
  5
197
330
192
100
AcDbEntity
  8
_U+56FE_U+5C42 1
 62
     7
420
 16777215
370
     9
100
AcDbVertex
100
AcDb2dVertex
 10
212.7396842854532
 20
53.101388392806
 30
0.0
  0
SEQEND
  5
198
330
192
100
AcDbEntity
  8
_U+56FE_U+5C42 1
 62
     7
420
 16777215
370
     9
  0
POLYLINE
  5
199
330
1F
100
AcDbEntity
  8
_U+56FE_U+5C42 1
 62
     7
420
 16777215
370
     9
100
AcDb2dPolyline
 66
     1
 10
0.0
 20
0.0
 30
0.0
  0
VERTEX
  5
19A
330
199
100
AcDbEntity
  8
_U+56FE_U+5C42 1
 62
     7
420
 16777215
370
     9
100
AcDbVertex
100
AcDb2dVertex
 10
7.953879518238732
 20
34.05154320461775
 30
0.0
  0
VERTEX
  5
19B
330
199
100
AcDbEntity
  8
_U+56FE_U+5C42 1
 62
     7
420
 16777215
370
     9
100
AcDbVertex
100
AcDb2dVertex
 10
21.95331245875084
 20
34.05154320461775
 30
0.0
  0
VERTEX
  5
19C
330
199
100
AcDbEntity
  8
_U+56FE_U+5C42 1
 62
     7
420
 16777215
370
     9
100
AcDbVertex
100
AcDb2dVertex
 10
21.95331245875084
 20
20.05211026410565
 30
0.0
  0
VERTEX
  5
19D
330
199
100
AcDbEntity
  8
_U+56FE_U+5C42 1
 62
     7
420
 16777215
370
     9
100
AcDbVertex
100
AcDb2dVertex
 10
7.953879518238732
 20
20.05211026410565
 30
0.0
  0
VERTEX
  5
19E
330
199
100
AcDbEntity
  8
_U+56FE_U+5C42 1
 62
     7
420
 16777215
370
     9
100
AcDbVertex
100
AcDb2dVertex
 10
7.953879518238732
 20
34.05154320461775
 30
0.0
  0
SEQEND
  5
19F
330
199
100
AcDbEntity
  8
_U+56FE_U+5C42 1
 62
     7
420
 16777215
370
     9
  0
POLYLINE
  5
1A0
330
1F
100
AcDbEntity
  8
_U+56FE_U+5C42 1
 62
     7
420
 16777215
370
     9
100
AcDb2dPolyline
 66
     1
 10
0.0
 20
0.0
 30
0.0
  0
VERTEX
  5
1A1
330
1A0
100
AcDbEntity
  8
_U+56FE_U+5C42 1
 62
     7
420
 16777215
370
     9
100
AcDbVertex
100
AcDb2dVertex
 10
29.38515689271073
 20
34.05154320461775
 30
0.0
  0
VERTEX
  5
1A2
330
1A0
100
AcDbEntity
  8
_U+56FE_U+5C42 1
 62
     7
420
 16777215
370
     9
100
AcDbVertex
100
AcDb2dVertex
 10
43.38440379836725
 20
34.05154320461775
 30
0.0
  0
VERTEX
  5
1A3
330
1A0
100
AcDbEntity
  8
_U+56FE_U+5C42 1
 62
     7
420
 16777215
370
     9
100
AcDbVertex
100
AcDb2dVertex
 10
43.38440379836725
 20
20.05211026410565
 30
0.0
  0
VERTEX
  5
1A4
330
1A0
100
AcDbEntity
  8
_U+56FE_U+5C42 1
 62
     7
420
 16777215
370
     9
100
AcDbVertex
100
AcDb2dVertex
 10
29.38515689271073
 20
20.05211026410565
 30
0.0
  0
VERTEX
  5
1A5
330
1A0
100
AcDbEntity
  8
_U+56FE_U+5C42 1
 62
     7
420
 16777215
370
     9
100
AcDbVertex
100
AcDb2dVertex
 10
29.38515689271073
 20
34.05154320461775
 30
0.0
  0
SEQEND
  5
1A6
330
1A0
100
AcDbEntity
  8
_U+56FE_U+5C42 1
 62
     7
420
 16777215
370
     9
  0
POLYLINE
  5
1A7
330
1F
100
AcDbEntity
  8
_U+56FE_U+5C42 1
 62
     7
420
 16777215
370
     9
100
AcDb2dPolyline
 66
     1
 10
0.0
 20
0.0
 30
0.0
  0
VERTEX
  5
1A8
330
1A7
100
AcDbEntity
  8
_U+56FE_U+5C42 1
 62
     7
420
 16777215
370
     9
100
AcDbVertex
100
AcDb2dVertex
 10
50.81500799995661
 20
34.05154320461775
 30
0.0
  0
VERTEX
  5
1A9
330
1A7
100
AcDbEntity
  8
_U+56FE_U+5C42 1
 62
     7
420
 16777215
370
     9
100
AcDbVertex
100
AcDb2dVertex
 10
64.81568117283925
 20
34.05154320461775
 30
0.0
  0
VERTEX
  5
1AA
330
1A7
100
AcDbEntity
  8
_U+56FE_U+5C42 1
 62
     7
420
 16777215
370
     9
100
AcDbVertex
100
AcDb2dVertex
 10
64.81568117283925
 20
20.05211026410565
 30
0.0
  0
VERTEX
  5
1AB
330
1A7
100
AcDbEntity
  8
_U+56FE_U+5C42 1
 62
     7
420
 16777215
370
     9
100
AcDbVertex
100
AcDb2dVertex
 10
50.81500799995661
 20
20.05211026410565
 30
0.0
  0
VERTEX
  5
1AC
330
1A7
100
AcDbEntity
  8
_U+56FE_U+5C42 1
 62
     7
420
 16777215
370
     9
100
AcDbVertex
100
AcDb2dVertex
 10
50.81500799995661
 20
34.05154320461775
 30
0.0
  0
SEQEND
  5
1AD
330
1A7
100
AcDbEntity
  8
_U+56FE_U+5C42 1
 62
     7
420
 16777215
370
     9
  0
POLYLINE
  5
1AE
330
1F
100
AcDbEntity
  8
_U+56FE_U+5C42 1
 62
     7
420
 16777215
370
     9
100
AcDb2dPolyline
 66
     1
 10
0.0
 20
0.0
 30
0.0
  0
VERTEX
  5
1AF
330
1AE
100
AcDbEntity
  8
_U+56FE_U+5C42 1
 62
     7
420
 16777215
370
     9
100
AcDbVertex
100
AcDb2dVertex
 10
169.8787418385909
 20
34.05154320461775
 30
0.0
  0
VERTEX
  5
1B0
330
1AE
100
AcDbEntity
  8
_U+56FE_U+5C42 1
 62
     7
420
 16777215
370
     9
100
AcDbVertex
100
AcDb2dVertex
 10
183.8777406977733
 20
34.05154320461775
 30
0.0
  0
VERTEX
  5
1B1
330
1AE
100
AcDbEntity
  8
_U+56FE_U+5C42 1
 62
     7
420
 16777215
370
     9
100
AcDbVertex
100
AcDb2dVertex
 10
183.8777406977733
 20
20.05211026410565
 30
0.0
  0
VERTEX
  5
1B2
330
1AE
100
AcDbEntity
  8
_U+56FE_U+5C42 1
 62
     7
420
 16777215
370
     9
100
AcDbVertex
100
AcDb2dVertex
 10
169.8787418385909
 20
20.05211026410565
 30
0.0
  0
VERTEX
  5
1B3
330
1AE
100
AcDbEntity
  8
_U+56FE_U+5C42 1
 62
     7
420
 16777215
370
     9
100
AcDbVertex
100
AcDb2dVertex
 10
169.8787418385909
 20
34.05154320461775
 30
0.0
  0
SEQEND
  5
1B4
330
1AE
100
AcDbEntity
  8
_U+56FE_U+5C42 1
 62
     7
420
 16777215
370
     9
  0
POLYLINE
  5
1B5
330
1F
100
AcDbEntity
  8
_U+56FE_U+5C42 1
 62
     7
420
 16777215
370
     9
100
AcDb2dPolyline
 66
     1
 10
0.0
 20
0.0
 30
0.0
  0
VERTEX
  5
1B6
330
1B5
100
AcDbEntity
  8
_U+56FE_U+5C42 1
 62
     7
420
 16777215
370
     9
100
AcDbVertex
100
AcDb2dVertex
 10
191.3097091549702
 20
34.05154320461775
 30
0.0
  0
VERTEX
  5
1B7
330
1B5
100
AcDbEntity
  8
_U+56FE_U+5C42 1
 62
     7
420
 16777215
370
     9
100
AcDbVertex
100
AcDb2dVertex
 10
205.3097002000491
 20
34.05154320461775
 30
0.0
  0
VERTEX
  5
1B8
330
1B5
100
AcDbEntity
  8
_U+56FE_U+5C42 1
 62
     7
420
 16777215
370
     9
100
AcDbVertex
100
AcDb2dVertex
 10
205.3097002000491
 20
20.05211026410565
 30
0.0
  0
VERTEX
  5
1B9
330
1B5
100
AcDbEntity
  8
_U+56FE_U+5C42 1
 62
     7
420
 16777215
370
     9
100
AcDbVertex
100
AcDb2dVertex
 10
191.3097091549702
 20
20.05211026410565
 30
0.0
  0
VERTEX
  5
1BA
330
1B5
100
AcDbEntity
  8
_U+56FE_U+5C42 1
 62
     7
420
 16777215
370
     9
100
AcDbVertex
100
AcDb2dVertex
 10
191.3097091549702
 20
34.05154320461775
 30
0.0
  0
SEQEND
  5
1BB
330
1B5
100
AcDbEntity
  8
_U+56FE_U+5C42 1
 62
     7
420
 16777215
370
     9
  0
POLYLINE
  5
1BC
330
1F
100
AcDbEntity
  8
_U+56FE_U+5C42 1
 62
     7
420
 16777215
370
     9
100
AcDb2dPolyline
 66
     1
 10
0.0
 20
0.0
 30
0.0
  0
VERTEX
  5
1BD
330
1BC
100
AcDbEntity
  8
_U+56FE_U+5C42 1
 62
     7
420
 16777215
370
     9
100
AcDbVertex
100
AcDb2dVertex
 10
212.7396842854532
 20
34.05154320461775
 30
0.0
  0
VERTEX
  5
1BE
330
1BC
100
AcDbEntity
  8
_U+56FE_U+5C42 1
 62
     7
420
 16777215
370
     9
100
AcDbVertex
100
AcDb2dVertex
 10
226.7405434931914
 20
34.05154320461775
 30
0.0
  0
VERTEX
  5
1BF
330
1BC
100
AcDbEntity
  8
_U+56FE_U+5C42 1
 62
     7
420
 16777215
370
     9
100
AcDbVertex
100
AcDb2dVertex
 10
226.7405434931914
 20
20.05211026410565
 30
0.0
  0
VERTEX
  5
1C0
330
1BC
100
AcDbEntity
  8
_U+56FE_U+5C42 1
 62
     7
420
 16777215
370
     9
100
AcDbVertex
100
AcDb2dVertex
 10
212.7396842854532
 20
20.05211026410565
 30
0.0
  0
VERTEX
  5
1C1
330
1BC
100
AcDbEntity
  8
_U+56FE_U+5C42 1
 62
     7
420
 16777215
370
     9
100
AcDbVertex
100
AcDb2dVertex
 10
212.7396842854532
 20
34.05154320461775
 30
0.0
  0
SEQEND
  5
1C2
330
1BC
100
AcDbEntity
  8
_U+56FE_U+5C42 1
 62
     7
420
 16777215
370
     9
  0
POLYLINE
  5
1C3
330
1F
100
AcDbEntity
  8
_U+56FE_U+5C42 1
 62
     7
420
 16777215
370
     9
100
AcDb2dPolyline
 66
     1
 10
0.0
 20
0.0
 30
0.0
  0
VERTEX
  5
1C4
330
1C3
100
AcDbEntity
  8
_U+56FE_U+5C42 1
 62
     7
420
 16777215
370
     9
100
AcDbVertex
100
AcDb2dVertex
 10
88.91488441118868
 20
34.05154320461775
 30
0.0
  0
VERTEX
  5
1C5
330
1C3
100
AcDbEntity
  8
_U+56FE_U+5C42 1
 62
     7
420
 16777215
370
     9
100
AcDbVertex
100
AcDb2dVertex
 10
88.91488441118868
 20
29.3510625202882
 30
0.0
  0
VERTEX
  5
1C6
330
1C3
100
AcDbEntity
  8
_U+56FE_U+5C42 1
 62
     7
420
 16777215
370
     9
100
AcDbVertex
100
AcDb2dVertex
 10
87.39088687427466
 20
29.3510625202882
 30
0.0
  0
VERTEX
  5
1C7
330
1C3
100
AcDbEntity
  8
_U+56FE_U+5C42 1
 62
     7
420
 16777215
370
     9
100
AcDbVertex
100
AcDb2dVertex
 10
87.39088687427466
 20
32.58124772934791
 30
0.0
  0
VERTEX
  5
1C8
330
1C3
100
AcDbEntity
  8
_U+56FE_U+5C42 1
 62
     7
420
 16777215
370
     9
100
AcDbVertex
100
AcDb2dVertex
 10
80.6398059885017
 20
32.58124772934791
 30
0.0
  0
VERTEX
  5
1C9
330
1C3
100
AcDbEntity
  8
_U+56FE_U+5C42 1
 62
     7
420
 16777215
370
     9
100
AcDbVertex
100
AcDb2dVertex
 10
80.6398059885017
 20
29.3510625202882
 30
0.0
  0
VERTEX
  5
1CA
330
1C3
100
AcDbEntity
  8
_U+56FE_U+5C42 1
 62
     7
420
 16777215
370
     9
100
AcDbVertex
100
AcDb2dVertex
 10
79.81579560151792
 20
29.3510625202882
 30
0.0
  0
VERTEX
  5
1CB
330
1C3
100
AcDbEntity
  8
_U+56FE_U+5C42 1
 62
     7
420
 16777215
370
     9
100
AcDbVertex
100
AcDb2dVertex
 10
79.81579560151792
 20
26.55229214131926
 30
0.0
  0
VERTEX
  5
1CC
330
1C3
100
AcDbEntity
  8
_U+56FE_U+5C42 1
 62
     7
420
 16777215
370
     9
100
AcDbVertex
100
AcDb2dVertex
 10
80.6398059885017
 20
26.55229214131926
 30
0.0
  0
VERTEX
  5
1CD
330
1C3
100
AcDbEntity
  8
_U+56FE_U+5C42 1
 62
     7
420
 16777215
370
     9
100
AcDbVertex
100
AcDb2dVertex
 10
80.6398059885017
 20
20.28223538045851
 30
0.0
  0
VERTEX
  5
1CE
330
1C3
100
AcDbEntity
  8
_U+56FE_U+5C42 1
 62
     7
420
 16777215
370
     9
100
AcDbVertex
100
AcDb2dVertex
 10
82.36484519267954
 20
20.28223538045851
 30
0.0
  0
VERTEX
  5
1CF
330
1C3
100
AcDbEntity
  8
_U+56FE_U+5C42 1
 62
     7
420
 16777215
370
     9
100
AcDbVertex
100
AcDb2dVertex
 10
82.36484519267954
 20
19.08193849225425
 30
0.0
  0
VERTEX
  5
1D0
330
1C3
100
AcDbEntity
  8
_U+56FE_U+5C42 1
 62
     7
420
 16777215
370
     9
100
AcDbVertex
100
AcDb2dVertex
 10
85.66547560038566
 20
19.08193849225425
 30
0.0
  0
VERTEX
  5
1D1
330
1C3
100
AcDbEntity
  8
_U+56FE_U+5C42 1
 62
     7
420
 16777215
370
     9
100
AcDbVertex
100
AcDb2dVertex
 10
85.66547560038566
 20
20.28223538045851
 30
0.0
  0
VERTEX
  5
1D2
330
1C3
100
AcDbEntity
  8
_U+56FE_U+5C42 1
 62
     7
420
 16777215
370
     9
100
AcDbVertex
100
AcDb2dVertex
 10
87.39088687427466
 20
20.28223538045851
 30
0.0
  0
VERTEX
  5
1D3
330
1C3
100
AcDbEntity
  8
_U+56FE_U+5C42 1
 62
     7
420
 16777215
370
     9
100
AcDbVertex
100
AcDb2dVertex
 10
87.39088687427466
 20
24.75116468120908
 30
0.0
  0
VERTEX
  5
1D4
330
1C3
100
AcDbEntity
  8
_U+56FE_U+5C42 1
 62
     7
420
 16777215
370
     9
100
AcDbVertex
100
AcDb2dVertex
 10
88.91488441118868
 20
24.75116468120908
 30
0.0
  0
VERTEX
  5
1D5
330
1C3
100
AcDbEntity
  8
_U+56FE_U+5C42 1
 62
     7
420
 16777215
370
     9
100
AcDbVertex
100
AcDb2dVertex
 10
88.91488441118868
 20
20.05211026410565
 30
0.0
  0
VERTEX
  5
1D6
330
1C3
100
AcDbEntity
  8
_U+56FE_U+5C42 1
 62
     7
420
 16777215
370
     9
100
AcDbVertex
100
AcDb2dVertex
 10
102.9156195956898
 20
20.05211026410565
 30
0.0
  0
VERTEX
  5
1D7
330
1C3
100
AcDbEntity
  8
_U+56FE_U+5C42 1
 62
     7
420
 16777215
370
     9
100
AcDbVertex
100
AcDb2dVertex
 10
102.9156195956898
 20
24.75116468120908
 30
0.0
  0
VERTEX
  5
1D8
330
1C3
100
AcDbEntity
  8
_U+56FE_U+5C42 1
 62
     7
420
 16777215
370
     9
100
AcDbVertex
100
AcDb2dVertex
 10
104.4397411558409
 20
24.75116468120908
 30
0.0
  0
VERTEX
  5
1D9
330
1C3
100
AcDbEntity
  8
_U+56FE_U+5C42 1
 62
     7
420
 16777215
370
     9
100
AcDbVertex
100
AcDb2dVertex
 10
104.4397411558409
 20
20.28223538045851
 30
0.0
  0
VERTEX
  5
1DA
330
1C3
100
AcDbEntity
  8
_U+56FE_U+5C42 1
 62
     7
420
 16777215
370
     9
100
AcDbVertex
100
AcDb2dVertex
 10
106.1647803600188
 20
20.28223538045851
 30
0.0
  0
VERTEX
  5
1DB
330
1C3
100
AcDbEntity
  8
_U+56FE_U+5C42 1
 62
     7
420
 16777215
370
     9
100
AcDbVertex
100
AcDb2dVertex
 10
106.1647803600188
 20
19.08193849225425
 30
0.0
  0
VERTEX
  5
1DC
330
1C3
100
AcDbEntity
  8
_U+56FE_U+5C42 1
 62
     7
420
 16777215
370
     9
100
AcDbVertex
100
AcDb2dVertex
 10
109.4657828374361
 20
19.08193849225425
 30
0.0
  0
VERTEX
  5
1DD
330
1C3
100
AcDbEntity
  8
_U+56FE_U+5C42 1
 62
     7
420
 16777215
370
     9
100
AcDbVertex
100
AcDb2dVertex
 10
109.4657828374361
 20
20.28223538045851
 30
0.0
  0
VERTEX
  5
1DE
330
1C3
100
AcDbEntity
  8
_U+56FE_U+5C42 1
 62
     7
420
 16777215
370
     9
100
AcDbVertex
100
AcDb2dVertex
 10
111.1908220416139
 20
20.28223538045851
 30
0.0
  0
VERTEX
  5
1DF
330
1C3
100
AcDbEntity
  8
_U+56FE_U+5C42 1
 62
     7
420
 16777215
370
     9
100
AcDbVertex
100
AcDb2dVertex
 10
111.1908220416139
 20
26.55229214131926
 30
0.0
  0
VERTEX
  5
1E0
330
1C3
100
AcDbEntity
  8
_U+56FE_U+5C42 1
 62
     7
420
 16777215
370
     9
100
AcDbVertex
100
AcDb2dVertex
 10
112.0148324285977
 20
26.55229214131926
 30
0.0
  0
VERTEX
  5
1E1
330
1C3
100
AcDbEntity
  8
_U+56FE_U+5C42 1
 62
     7
420
 16777215
370
     9
100
AcDbVertex
100
AcDb2dVertex
 10
112.0148324285977
 20
29.3510625202882
 30
0.0
  0
VERTEX
  5
1E2
330
1C3
100
AcDbEntity
  8
_U+56FE_U+5C42 1
 62
     7
420
 16777215
370
     9
100
AcDbVertex
100
AcDb2dVertex
 10
111.1908220416139
 20
29.3510625202882
 30
0.0
  0
VERTEX
  5
1E3
330
1C3
100
AcDbEntity
  8
_U+56FE_U+5C42 1
 62
     7
420
 16777215
370
     9
100
AcDbVertex
100
AcDb2dVertex
 10
111.1908220416139
 20
32.58124772934791
 30
0.0
  0
VERTEX
  5
1E4
330
1C3
100
AcDbEntity
  8
_U+56FE_U+5C42 1
 62
     7
420
 16777215
370
     9
100
AcDbVertex
100
AcDb2dVertex
 10
104.4397411558409
 20
32.58124772934791
 30
0.0
  0
VERTEX
  5
1E5
330
1C3
100
AcDbEntity
  8
_U+56FE_U+5C42 1
 62
     7
420
 16777215
370
     9
100
AcDbVertex
100
AcDb2dVertex
 10
104.4397411558409
 20
29.3510625202882
 30
0.0
  0
VERTEX
  5
1E6
330
1C3
100
AcDbEntity
  8
_U+56FE_U+5C42 1
 62
     7
420
 16777215
370
     9
100
AcDbVertex
100
AcDb2dVertex
 10
102.9156195956898
 20
29.3510625202882
 30
0.0
  0
VERTEX
  5
1E7
330
1C3
100
AcDbEntity
  8
_U+56FE_U+5C42 1
 62
     7
420
 16777215
370
     9
100
AcDbVertex
100
AcDb2dVertex
 10
102.9156195956898
 20
34.05154320461775
 30
0.0
  0
VERTEX
  5
1E8
330
1C3
100
AcDbEntity
  8
_U+56FE_U+5C42 1
 62
     7
420
 16777215
370
     9
100
AcDbVertex
100
AcDb2dVertex
 10
88.91488441118868
 20
34.05154320461775
 30
0.0
  0
SEQEND
  5
1E9
330
1C3
100
AcDbEntity
  8
_U+56FE_U+5C42 1
 62
     7
420
 16777215
370
     9
  0
ENDSEC
  0
SECTION
  2
OBJECTS
  0
DICTIONARY
  5
C
330
0
100
AcDbDictionary
281
     1
  3
ACAD_GROUP
350
D
  3
ACAD_LAYOUT
350
1A
  3
ACAD_MATERIAL
350
3B
  3
ACAD_MLEADERSTYLE
350
1EB
  3
ACAD_MLINESTYLE
350
17
  3
ACAD_PLOTSETTINGS
350
19
  3
ACAD_PLOTSTYLENAME
350
E
  3
ACAD_TABLESTYLE
350
1EA
  3
ACAD_VISUALSTYLE
350
2A
  0
SUN
  5
3F
330
29
100
AcDbSun
 90
        1
290
     0
 63
     7
421
 16777215
 40
1.0
291
     1
 91
  2455826
 92
 54000000
292
     0
 70
     2
 71
   256
280
     1
  0
DICTIONARY
  5
D
102
{ACAD_REACTORS
330
C
102
}
330
C
100
AcDbDictionary
281
     1
  0
DICTIONARY
  5
1A
102
{ACAD_REACTORS
330
C
102
}
330
C
100
AcDbDictionary
281
     1
  3
Layout1
350
1E
  3
Layout2
350
26
  3
Model
350
22
  0
DICTIONARY
  5
3B
102
{ACAD_REACTORS
330
C
102
}
330
C
100
AcDbDictionary
281
     1
  3
ByBlock
350
3D
  3
ByLayer
350
3C
  3
Global
350
3E
  0
DICTIONARY
  5
1EB
102
{ACAD_REACTORS
330
C
102
}
330
C
100
AcDbDictionary
281
     1
  0
DICTIONARY
  5
17
102
{ACAD_REACTORS
330
C
102
}
330
C
100
AcDbDictionary
281
     1
  3
Standard
350
18
  0
DICTIONARY
  5
19
102
{ACAD_REACTORS
330
C
102
}
330
C
100
AcDbDictionary
281
     1
  0
ACDBDICTIONARYWDFLT
  5
E
102
{ACAD_REACTORS
330
C
102
}
330
C
100
AcDbDictionary
281
     1
  3
Normal
350
F
100
AcDbDictionaryWithDefault
340
F
  0
DICTIONARY
  5
1EA
102
{ACAD_REACTORS
330
C
102
}
330
C
100
AcDbDictionary
281
     1
  0
DICTIONARY
  5
2A
102
{ACAD_REACTORS
330
C
102
}
330
C
100
AcDbDictionary
281
     1
  3
2dWireframe
350
2F
  3
3D Hidden
350
31
  3
3dWireframe
350
30
  3
Basic
350
32
  3
Brighten
350
36
  3
ColorChange
350
3A
  3
Conceptual
350
34
  3
Dim
350
35
  3
Facepattern
350
39
  3
Flat
350
2B
  3
FlatWithEdges
350
2C
  3
Gouraud
350
2D
  3
GouraudWithEdges
350
2E
  3
Linepattern
350
38
  3
Realistic
350
33
  3
Thicken
350
37
  0
LAYOUT
  5
1E
102
{ACAD_REACTORS
330
1A
102
}
330
1A
100
AcDbPlotSettings
  1

  2
none_device
  4

  6

 40
0.0
 41
0.0
 42
0.0
 43
0.0
 44
0.0
 45
0.0
 46
0.0
 47
0.0
 48
0.0
 49
0.0
140
0.0
141
0.0
142
1.0
143
1.0
 70
   688
 72
     0
 73
     0
 74
     5
  7

 75
    16
 76
     0
 77
     2
 78
   300
147
1.0
148
0.0
149
0.0
100
AcDbLayout
  1
Layout1
 70
     1
 71
     1
 10
0.0
 20
0.0
 11
12.0
 21
9.0
 12
0.0
 22
0.0
 32
0.0
 14
1.000000000000000E+20
 24
1.000000000000000E+20
 34
1.000000000000000E+20
 15
-1.000000000000000E+20
 25
-1.000000000000000E+20
 35
-1.000000000000000E+20
146
0.0
 13
0.0
 23
0.0
 33
0.0
 16
1.0
 26
0.0
 36
0.0
 17
0.0
 27
1.0
 37
0.0
 76
     0
330
1B
  0
LAYOUT
  5
26
102
{ACAD_REACTORS
330
1A
102
}
330
1A
100
AcDbPlotSettings
  1

  2
none_device
  4

  6

 40
0.0
 41
0.0
 42
0.0
 43
0.0
 44
0.0
 45
0.0
 46
0.0
 47
0.0
 48
0.0
 49
0.0
140
0.0
141
0.0
142
1.0
143
1.0
 70
   688
 72
     0
 73
     0
 74
     5
  7

 75
    16
 76
     0
 77
     2
 78
   300
147
1.0
148
0.0
149
0.0
100
AcDbLayout
  1
Layout2
 70
     1
 71
     2
 10
0.0
 20
0.0
 11
0.0
 21
0.0
 12
0.0
 22
0.0
 32
0.0
 14
0.0
 24
0.0
 34
0.0
 15
0.0
 25
0.0
 35
0.0
146
0.0
 13
0.0
 23
0.0
 33
0.0
 16
1.0
 26
0.0
 36
0.0
 17
0.0
 27
1.0
 37
0.0
 76
     0
330
23
  0
LAYOUT
  5
22
102
{ACAD_REACTORS
330
1A
102
}
330
1A
100
AcDbPlotSettings
  1

  2
none_device
  4

  6

 40
0.0
 41
0.0
 42
0.0
 43
0.0
 44
0.0
 45
0.0
 46
0.0
 47
0.0
 48
0.0
 49
0.0
140
0.0
141
0.0
142
1.0
143
1.0
 70
  1712
 72
     0
 73
     0
 74
     0
  7

 75
     0
 76
     0
 77
     2
 78
   300
147
1.0
148
0.0
149
0.0
100
AcDbLayout
  1
Model
 70
     1
 71
     0
 10
0.0
 20
0.0
 11
12.0
 21
9.0
 12
0.0
 22
0.0
 32
0.0
 14
1.000000000000000E+20
 24
1.000000000000000E+20
 34
1.000000000000000E+20
 15
-1.000000000000000E+20
 25
-1.000000000000000E+20
 35
-1.000000000000000E+20
146
0.0
 13
0.0
 23
0.0
 33
0.0
 16
1.0
 26
0.0
 36
0.0
 17
0.0
 27
1.0
 37
0.0
 76
     0
330
1F
331
29
  0
MATERIAL
  5
3D
102
{ACAD_REACTORS
330
3B
102
}
330
3B
100
AcDbMaterial
  1
ByBlock
 72
     1
 94
      127
  0
MATERIAL
  5
3C
102
{ACAD_REACTORS
330
3B
102
}
330
3B
100
AcDbMaterial
  1
ByLayer
 72
     1
 94
      127
  0
MATERIAL
  5
3E
102
{ACAD_REACTORS
330
3B
102
}
330
3B
100
AcDbMaterial
  1
Global
 72
     1
 94
      127
  0
MLINESTYLE
  5
18
102
{ACAD_REACTORS
330
17
102
}
330
17
100
AcDbMlineStyle
  2
Standard
 70
     0
  3

 62
   256
 51
90.0
 52
90.0
 71
     2
 49
0.5
 62
   256
  6
BYLAYER
 49
-0.5
 62
   256
  6
BYLAYER
  0
ACDBPLACEHOLDER
  5
F
102
{ACAD_REACTORS
330
E
102
}
330
E
  0
VISUALSTYLE
  5
2F
102
{ACAD_REACTORS
330
2A
102
}
330
2A
100
AcDbVisualStyle
  2
2dWireframe
 70
     4
177
     2
291
     0
 71
     0
176
     1
 72
     2
176
     1
 73
     0
176
     1
 90
        0
176
     1
 40
-0.6
176
     1
 41
-30.0
176
     1
 62
     5
 63
     7
421
 16777215
176
     1
 74
     1
176
     1
 91
        4
176
     1
 64
     7
176
     1
 65
   257
176
     1
 75
     1
176
     1
175
     1
176
     1
 42
1.0
176
     1
 92
        0
176
     1
 66
   257
176
     1
 43
1.0
176
     1
 76
     1
176
     1
 77
     6
176
     1
 78
     2
176
     1
 67
     7
176
     1
 79
     5
176
     1
170
     0
176
     1
171
     0
176
     1
290
     0
176
     1
 93
        1
176
     1
 44
0.0
176
     1
173
     0
176
     1
  0
VISUALSTYLE
  5
31
102
{ACAD_REACTORS
330
2A
102
}
330
2A
100
AcDbVisualStyle
  2
3D Hidden
 70
     6
177
     2
291
     0
 71
     1
176
     1
 72
     2
176
     1
 73
     2
176
     1
 90
        0
176
     1
 40
-0.6
176
     1
 41
-30.0
176
     1
 62
     5
 63
     7
421
 16777215
176
     1
 74
     2
176
     1
 91
        2
176
     1
 64
     7
176
     1
 65
   257
176
     1
 75
     2
176
     1
175
     1
176
     1
 42
40.0
176
     1
 92
        0
176
     1
 66
   257
176
     1
 43
1.0
176
     1
 76
     1
176
     1
 77
     6
176
     1
 78
     2
176
     1
 67
     7
176
     1
 79
     3
176
     1
170
     0
176
     1
171
     0
176
     1
290
     0
176
     1
 93
        1
176
     1
 44
0.0
176
     1
173
     0
176
     1
  0
VISUALSTYLE
  5
30
102
{ACAD_REACTORS
330
2A
102
}
330
2A
100
AcDbVisualStyle
  2
3dWireframe
 70
     5
177
     2
291
     0
 71
     0
176
     1
 72
     2
176
     1
 73
     0
176
     1
 90
        0
176
     1
 40
-0.6
176
     1
 41
-30.0
176
     1
 62
     5
 63
     7
421
 16777215
176
     1
 74
     1
176
     1
 91
        4
176
     1
 64
     7
176
     1
 65
   257
176
     1
 75
     1
176
     1
175
     1
176
     1
 42
1.0
176
     1
 92
        0
176
     1
 66
   257
176
     1
 43
1.0
176
     1
 76
     1
176
     1
 77
     6
176
     1
 78
     2
176
     1
 67
     7
176
     1
 79
     5
176
     1
170
     0
176
     1
171
     0
176
     1
290
     0
176
     1
 93
        1
176
     1
 44
0.0
176
     1
173
     0
176
     1
  0
VISUALSTYLE
  5
32
102
{ACAD_REACTORS
330
2A
102
}
330
2A
100
AcDbVisualStyle
  2
Basic
 70
     7
177
     2
291
     1
 71
     1
176
     1
 72
     0
176
     1
 73
     1
176
     1
 90
        0
176
     1
 40
-0.6
176
     1
 41
-30.0
176
     1
 62
     5
 63
     7
421
 16777215
176
     1
 74
     0
176
     1
 91
        4
176
     1
 64
     7
176
     1
 65
   257
176
     1
 75
     1
176
     1
175
     1
176
     1
 42
1.0
176
     1
 92
        8
176
     1
 66
     7
176
     1
 43
1.0
176
     1
 76
     1
176
     1
 77
     6
176
     1
 78
     2
176
     1
 67
     7
176
     1
 79
     5
176
     1
170
     0
176
     1
171
     0
176
     1
290
     0
176
     1
 93
        1
176
     1
 44
0.0
176
     1
173
     0
176
     1
  0
VISUALSTYLE
  5
36
102
{ACAD_REACTORS
330
2A
102
}
330
2A
100
AcDbVisualStyle
  2
Brighten
 70
    12
177
     2
291
     1
 71
     2
176
     1
 72
     2
176
     1
 73
     0
176
     1
 90
        0
176
     1
 40
-0.6
176
     1
 41
-30.0
176
     1
 62
     5
 63
     7
421
 16777215
176
     1
 74
     1
176
     1
 91
        4
176
     1
 64
     7
176
     1
 65
   257
176
     1
 75
     1
176
     1
175
     1
176
     1
 42
1.0
176
     1
 92
        8
176
     1
 66
     7
176
     1
 43
1.0
176
     1
 76
     1
176
     1
 77
     6
176
     1
 78
     2
176
     1
 67
     7
176
     1
 79
     5
176
     1
170
     0
176
     1
171
     0
176
     1
290
     0
176
     1
 93
        1
176
     1
 44
50.0
176
     1
173
     0
176
     1
  0
VISUALSTYLE
  5
3A
102
{ACAD_REACTORS
330
2A
102
}
330
2A
100
AcDbVisualStyle
  2
ColorChange
 70
    16
177
     2
291
     1
 71
     2
176
     1
 72
     2
176
     1
 73
     3
176
     1
 90
        0
176
     1
 40
-0.6
176
     1
 41
-30.0
176
     1
 62
     5
 63
     8
421
  8421504
176
     1
 74
     1
176
     1
 91
        4
176
     1
 64
     7
176
     1
 65
   257
176
     1
 75
     1
176
     1
175
     1
176
     1
 42
1.0
176
     1
 92
        8
176
     1
 66
     8
424
  8421504
176
     1
 43
1.0
176
     1
 76
     1
176
     1
 77
     6
176
     1
 78
     2
176
     1
 67
     7
176
     1
 79
     5
176
     1
170
     0
176
     1
171
     0
176
     1
290
     0
176
     1
 93
        1
176
     1
 44
0.0
176
     1
173
     0
176
     1
  0
VISUALSTYLE
  5
34
102
{ACAD_REACTORS
330
2A
102
}
330
2A
100
AcDbVisualStyle
  2
Conceptual
 70
     9
177
     2
291
     0
 71
     3
176
     1
 72
     2
176
     1
 73
     0
176
     1
 90
        0
176
     1
 40
-0.6
176
     1
 41
-30.0
176
     1
 62
     5
 63
     7
421
 16777215
176
     1
 74
     2
176
     1
 91
        2
176
     1
 64
     7
176
     1
 65
   257
176
     1
 75
     1
176
     1
175
     1
176
     1
 42
40.0
176
     1
 92
        8
176
     1
 66
     7
176
     1
 43
1.0
176
     1
 76
     1
176
     1
 77
     6
176
     1
 78
     2
176
     1
 67
     7
176
     1
 79
     3
176
     1
170
     0
176
     1
171
     0
176
     1
290
     0
176
     1
 93
        1
176
     1
 44
0.0
176
     1
173
     0
176
     1
  0
VISUALSTYLE
  5
35
102
{ACAD_REACTORS
330
2A
102
}
330
2A
100
AcDbVisualStyle
  2
Dim
 70
    11
177
     2
291
     1
 71
     2
176
     1
 72
     2
176
     1
 73
     0
176
     1
 90
        0
176
     1
 40
-0.6
176
     1
 41
-30.0
176
     1
 62
     5
 63
     7
421
 16777215
176
     1
 74
     1
176
     1
 91
        4
176
     1
 64
     7
176
     1
 65
   257
176
     1
 75
     1
176
     1
175
     1
176
     1
 42
1.0
176
     1
 92
        8
176
     1
 66
     7
176
     1
 43
1.0
176
     1
 76
     1
176
     1
 77
     6
176
     1
 78
     2
176
     1
 67
     7
176
     1
 79
     5
176
     1
170
     0
176
     1
171
     0
176
     1
290
     0
176
     1
 93
        1
176
     1
 44
-50.0
176
     1
173
     0
176
     1
  0
VISUALSTYLE
  5
39
102
{ACAD_REACTORS
330
2A
102
}
330
2A
100
AcDbVisualStyle
  2
Facepattern
 70
    15
177
     2
291
     1
 71
     2
176
     1
 72
     2
176
     1
 73
     0
176
     1
 90
        0
176
     1
 40
-0.6
176
     1
 41
-30.0
176
     1
 62
     5
 63
     7
421
 16777215
176
     1
 74
     1
176
     1
 91
        4
176
     1
 64
     7
176
     1
 65
   257
176
     1
 75
     1
176
     1
175
     1
176
     1
 42
1.0
176
     1
 92
        8
176
     1
 66
     7
176
     1
 43
1.0
176
     1
 76
     1
176
     1
 77
     6
176
     1
 78
     2
176
     1
 67
     7
176
     1
 79
     5
176
     1
170
     0
176
     1
171
     0
176
     1
290
     0
176
     1
 93
        1
176
     1
 44
0.0
176
     1
173
     0
176
     1
  0
VISUALSTYLE
  5
2B
102
{ACAD_REACTORS
330
2A
102
}
330
2A
100
AcDbVisualStyle
  2
Flat
 70
     0
177
     2
291
     1
 71
     2
176
     1
 72
     1
176
     1
 73
     1
176
     1
 90
        2
176
     1
 40
-0.6
176
     1
 41
30.0
176
     1
 62
     5
 63
     7
421
 16777215
176
     1
 74
     0
176
     1
 91
        4
176
     1
 64
     7
176
     1
 65
   257
176
     1
 75
     1
176
     1
175
     1
176
     1
 42
1.0
176
     1
 92
        8
176
     1
 66
     7
176
     1
 43
1.0
176
     1
 76
     1
176
     1
 77
     6
176
     1
 78
     2
176
     1
 67
     7
176
     1
 79
     5
176
     1
170
     0
176
     1
171
     0
176
     1
290
     0
176
     1
 93
       13
176
     1
 44
0.0
176
     1
173
     0
176
     1
  0
VISUALSTYLE
  5
2C
102
{ACAD_REACTORS
330
2A
102
}
330
2A
100
AcDbVisualStyle
  2
FlatWithEdges
 70
     1
177
     2
291
     1
 71
     2
176
     1
 72
     1
176
     1
 73
     1
176
     1
 90
        2
176
     1
 40
-0.6
176
     1
 41
30.0
176
     1
 62
     5
 63
     7
421
 16777215
176
     1
 74
     1
176
     1
 91
        4
176
     1
 64
     7
176
     1
 65
   257
176
     1
 75
     1
176
     1
175
     1
176
     1
 42
1.0
176
     1
 92
        0
176
     1
 66
   257
176
     1
 43
1.0
176
     1
 76
     1
176
     1
 77
     6
176
     1
 78
     2
176
     1
 67
     7
176
     1
 79
     5
176
     1
170
     0
176
     1
171
     0
176
     1
290
     0
176
     1
 93
       13
176
     1
 44
0.0
176
     1
173
     0
176
     1
  0
VISUALSTYLE
  5
2D
102
{ACAD_REACTORS
330
2A
102
}
330
2A
100
AcDbVisualStyle
  2
Gouraud
 70
     2
177
     2
291
     1
 71
     2
176
     1
 72
     2
176
     1
 73
     1
176
     1
 90
        2
176
     1
 40
-0.6
176
     1
 41
30.0
176
     1
 62
     5
 63
     7
421
 16777215
176
     1
 74
     0
176
     1
 91
        4
176
     1
 64
     7
176
     1
 65
   257
176
     1
 75
     1
176
     1
175
     1
176
     1
 42
1.0
176
     1
 92
        0
176
     1
 66
     7
176
     1
 43
1.0
176
     1
 76
     1
176
     1
 77
     6
176
     1
 78
     2
176
     1
 67
     7
176
     1
 79
     5
176
     1
170
     0
176
     1
171
     0
176
     1
290
     0
176
     1
 93
       13
176
     1
 44
0.0
176
     1
173
     0
176
     1
  0
VISUALSTYLE
  5
2E
102
{ACAD_REACTORS
330
2A
102
}
330
2A
100
AcDbVisualStyle
  2
GouraudWithEdges
 70
     3
177
     2
291
     1
 71
     2
176
     1
 72
     2
176
     1
 73
     1
176
     1
 90
        2
176
     1
 40
-0.6
176
     1
 41
30.0
176
     1
 62
     5
 63
     7
421
 16777215
176
     1
 74
     1
176
     1
 91
        4
176
     1
 64
     7
176
     1
 65
   257
176
     1
 75
     1
176
     1
175
     1
176
     1
 42
1.0
176
     1
 92
        0
176
     1
 66
   257
176
     1
 43
1.0
176
     1
 76
     1
176
     1
 77
     6
176
     1
 78
     2
176
     1
 67
     7
176
     1
 79
     5
176
     1
170
     0
176
     1
171
     0
176
     1
290
     0
176
     1
 93
       13
176
     1
 44
0.0
176
     1
173
     0
176
     1
  0
VISUALSTYLE
  5
38
102
{ACAD_REACTORS
330
2A
102
}
330
2A
100
AcDbVisualStyle
  2
Linepattern
 70
    14
177
     2
291
     1
 71
     2
176
     1
 72
     2
176
     1
 73
     0
176
     1
 90
        0
176
     1
 40
-0.6
176
     1
 41
-30.0
176
     1
 62
     5
 63
     7
421
 16777215
176
     1
 74
     1
176
     1
 91
        4
176
     1
 64
     7
176
     1
 65
   257
176
     1
 75
     7
176
     1
175
     7
176
     1
 42
1.0
176
     1
 92
        8
176
     1
 66
     7
176
     1
 43
1.0
176
     1
 76
     1
176
     1
 77
     6
176
     1
 78
     2
176
     1
 67
     7
176
     1
 79
     5
176
     1
170
     0
176
     1
171
     0
176
     1
290
     0
176
     1
 93
        1
176
     1
 44
0.0
176
     1
173
     0
176
     1
  0
VISUALSTYLE
  5
33
102
{ACAD_REACTORS
330
2A
102
}
330
2A
100
AcDbVisualStyle
  2
Realistic
 70
     8
177
     2
291
     0
 71
     2
176
     1
 72
     2
176
     1
 73
     0
176
     1
 90
        0
176
     1
 40
-0.6
176
     1
 41
-30.0
176
     1
 62
     5
 63
     7
421
 16777215
176
     1
 74
     1
176
     1
 91
        0
176
     1
 64
     7
176
     1
 65
   257
176
     1
 75
     1
176
     1
175
     1
176
     1
 42
1.0
176
     1
 92
        8
176
     1
 66
     8
424
  7895160
176
     1
 43
1.0
176
     1
 76
     1
176
     1
 77
     6
176
     1
 78
     2
176
     1
 67
     7
176
     1
 79
     5
176
     1
170
     0
176
     1
171
     0
176
     1
290
     0
176
     1
 93
       13
176
     1
 44
0.0
176
     1
173
     0
176
     1
  0
VISUALSTYLE
  5
37
102
{ACAD_REACTORS
330
2A
102
}
330
2A
100
AcDbVisualStyle
  2
Thicken
 70
    13
177
     2
291
     1
 71
     2
176
     1
 72
     2
176
     1
 73
     0
176
     1
 90
        0
176
     1
 40
-0.6
176
     1
 41
-30.0
176
     1
 62
     5
 63
     7
421
 16777215
176
     1
 74
     1
176
     1
 91
        4
176
     1
 64
     7
176
     1
 65
   257
176
     1
 75
     1
176
     1
175
     1
176
     1
 42
1.0
176
     1
 92
       12
176
     1
 66
     7
176
     1
 43
1.0
176
     1
 76
     1
176
     1
 77
     6
176
     1
 78
     2
176
     1
 67
     7
176
     1
 79
     5
176
     1
170
     0
176
     1
171
     0
176
     1
290
     0
176
     1
 93
        1
176
     1
 44
0.0
176
     1
173
     0
176
     1
  0
ENDSEC
  0
EOF
